<mxfile host="app.diagrams.net" agent="Mozilla/5.0 (Windows NT 10.0; Win64; x64) AppleWebKit/537.36 (KHTML, like Gecko) Chrome/136.0.0.0 Safari/537.36" version="27.0.9" pages="13">
  <diagram name="TỔNG QUAN QUY TRÌNH NGHIỆP VỤ" id="byMugxpqY4cTctcyVaMz">
    <mxGraphModel dx="1520" dy="781" grid="1" gridSize="10" guides="1" tooltips="1" connect="1" arrows="1" fold="1" page="1" pageScale="1" pageWidth="1169" pageHeight="827" math="0" shadow="0">
      <root>
        <mxCell id="0" />
        <mxCell id="1" parent="0" />
        <mxCell id="pwXzotiu01EJC3qDll5_-23" value="&lt;font face=&quot;Times New Roman&quot; style=&quot;font-size: 17px;&quot;&gt;BẮT ĐẦU&lt;/font&gt;" style="rounded=0;whiteSpace=wrap;html=1;fillColor=#d5e8d4;strokeColor=#82b366;" parent="1" vertex="1">
          <mxGeometry x="522" y="108" width="120" height="30" as="geometry" />
        </mxCell>
        <mxCell id="pwXzotiu01EJC3qDll5_-24" value="&lt;font face=&quot;Times New Roman&quot; style=&quot;font-size: 17px;&quot;&gt;QUẢN LÝ KHOÁ HỌC &amp;amp; HỌC PHẦN&lt;/font&gt;" style="rounded=0;whiteSpace=wrap;html=1;fillColor=#dae8fc;strokeColor=#6c8ebf;" parent="1" vertex="1">
          <mxGeometry x="429" y="168" width="305" height="30" as="geometry" />
        </mxCell>
        <mxCell id="pwXzotiu01EJC3qDll5_-25" value="&lt;font face=&quot;Times New Roman&quot; style=&quot;font-size: 17px;&quot;&gt;QUẢN LÝ LỚP HỌC PHẦN&lt;/font&gt;" style="rounded=0;whiteSpace=wrap;html=1;fillColor=#dae8fc;strokeColor=#6c8ebf;" parent="1" vertex="1">
          <mxGeometry x="429.5" y="228" width="305" height="30" as="geometry" />
        </mxCell>
        <mxCell id="pwXzotiu01EJC3qDll5_-26" value="&lt;font face=&quot;Times New Roman&quot;&gt;&lt;span style=&quot;font-size: 17px;&quot;&gt;LẬP THỜI KHOÁ BIỂU&lt;/span&gt;&lt;/font&gt;" style="rounded=0;whiteSpace=wrap;html=1;fillColor=#dae8fc;strokeColor=#6c8ebf;" parent="1" vertex="1">
          <mxGeometry x="429" y="288" width="305" height="30" as="geometry" />
        </mxCell>
        <mxCell id="pwXzotiu01EJC3qDll5_-27" value="&lt;font face=&quot;Times New Roman&quot;&gt;&lt;span style=&quot;font-size: 17px;&quot;&gt;THỰC HIỆN THÔNG BÁO&lt;/span&gt;&lt;/font&gt;" style="rounded=0;whiteSpace=wrap;html=1;fillColor=#dae8fc;strokeColor=#6c8ebf;" parent="1" vertex="1">
          <mxGeometry x="429.5" y="348" width="305" height="30" as="geometry" />
        </mxCell>
        <mxCell id="pwXzotiu01EJC3qDll5_-28" value="&lt;font face=&quot;Times New Roman&quot;&gt;&lt;span style=&quot;font-size: 17px;&quot;&gt;ĐỒNG BỘ DỮ LIỆU HỆ THỐNG&lt;/span&gt;&lt;/font&gt;" style="rounded=0;whiteSpace=wrap;html=1;fillColor=#dae8fc;strokeColor=#6c8ebf;" parent="1" vertex="1">
          <mxGeometry x="429" y="408" width="305" height="30" as="geometry" />
        </mxCell>
        <mxCell id="pwXzotiu01EJC3qDll5_-29" value="&lt;font face=&quot;Times New Roman&quot;&gt;&lt;span style=&quot;font-size: 17px;&quot;&gt;QUẢN LÝ THÔNG TIN CÁ NHÂN&lt;/span&gt;&lt;/font&gt;" style="rounded=0;whiteSpace=wrap;html=1;fillColor=#dae8fc;strokeColor=#6c8ebf;" parent="1" vertex="1">
          <mxGeometry x="429.5" y="468" width="305" height="30" as="geometry" />
        </mxCell>
        <mxCell id="pwXzotiu01EJC3qDll5_-30" value="&lt;font face=&quot;Times New Roman&quot;&gt;&lt;span style=&quot;font-size: 17px;&quot;&gt;ĐĂNG KÝ LỊCH GIẢNG DẠY&lt;/span&gt;&lt;/font&gt;" style="rounded=0;whiteSpace=wrap;html=1;fillColor=#dae8fc;strokeColor=#6c8ebf;" parent="1" vertex="1">
          <mxGeometry x="177" y="528" width="305" height="30" as="geometry" />
        </mxCell>
        <mxCell id="pwXzotiu01EJC3qDll5_-31" value="&lt;font face=&quot;Times New Roman&quot;&gt;&lt;span style=&quot;font-size: 17px;&quot;&gt;ĐĂNG KÝ HỌC PHẦN&lt;/span&gt;&lt;/font&gt;" style="rounded=0;whiteSpace=wrap;html=1;fillColor=#dae8fc;strokeColor=#6c8ebf;" parent="1" vertex="1">
          <mxGeometry x="687" y="528" width="305" height="30" as="geometry" />
        </mxCell>
        <mxCell id="pwXzotiu01EJC3qDll5_-32" value="&lt;font face=&quot;Times New Roman&quot;&gt;&lt;span style=&quot;font-size: 17px;&quot;&gt;QUẢN LÝ ĐIỂM &amp;amp; LỚP HỌC&lt;/span&gt;&lt;/font&gt;" style="rounded=0;whiteSpace=wrap;html=1;fillColor=#dae8fc;strokeColor=#6c8ebf;" parent="1" vertex="1">
          <mxGeometry x="429.5" y="578" width="305" height="30" as="geometry" />
        </mxCell>
        <mxCell id="2erEQNz_2pci9PgfNqx--1" value="" style="endArrow=classic;html=1;rounded=0;exitX=0.5;exitY=1;exitDx=0;exitDy=0;entryX=0.5;entryY=0;entryDx=0;entryDy=0;" parent="1" source="pwXzotiu01EJC3qDll5_-23" target="pwXzotiu01EJC3qDll5_-24" edge="1">
          <mxGeometry width="50" height="50" relative="1" as="geometry">
            <mxPoint x="557" y="528" as="sourcePoint" />
            <mxPoint x="607" y="478" as="targetPoint" />
          </mxGeometry>
        </mxCell>
        <mxCell id="2erEQNz_2pci9PgfNqx--2" value="" style="endArrow=classic;html=1;rounded=0;exitX=0.5;exitY=1;exitDx=0;exitDy=0;entryX=0.5;entryY=0;entryDx=0;entryDy=0;" parent="1" source="pwXzotiu01EJC3qDll5_-24" target="pwXzotiu01EJC3qDll5_-25" edge="1">
          <mxGeometry width="50" height="50" relative="1" as="geometry">
            <mxPoint x="592" y="148" as="sourcePoint" />
            <mxPoint x="592" y="178" as="targetPoint" />
          </mxGeometry>
        </mxCell>
        <mxCell id="2erEQNz_2pci9PgfNqx--3" value="" style="endArrow=classic;html=1;rounded=0;exitX=0.5;exitY=1;exitDx=0;exitDy=0;entryX=0.5;entryY=0;entryDx=0;entryDy=0;" parent="1" source="pwXzotiu01EJC3qDll5_-25" target="pwXzotiu01EJC3qDll5_-26" edge="1">
          <mxGeometry width="50" height="50" relative="1" as="geometry">
            <mxPoint x="627" y="238" as="sourcePoint" />
            <mxPoint x="627" y="268" as="targetPoint" />
          </mxGeometry>
        </mxCell>
        <mxCell id="2erEQNz_2pci9PgfNqx--4" value="" style="endArrow=classic;html=1;rounded=0;exitX=0.5;exitY=1;exitDx=0;exitDy=0;entryX=0.5;entryY=0;entryDx=0;entryDy=0;" parent="1" source="pwXzotiu01EJC3qDll5_-26" target="pwXzotiu01EJC3qDll5_-27" edge="1">
          <mxGeometry width="50" height="50" relative="1" as="geometry">
            <mxPoint x="607" y="308" as="sourcePoint" />
            <mxPoint x="607" y="338" as="targetPoint" />
          </mxGeometry>
        </mxCell>
        <mxCell id="2erEQNz_2pci9PgfNqx--5" value="" style="endArrow=classic;html=1;rounded=0;exitX=0.5;exitY=1;exitDx=0;exitDy=0;entryX=0.5;entryY=0;entryDx=0;entryDy=0;" parent="1" source="pwXzotiu01EJC3qDll5_-27" target="pwXzotiu01EJC3qDll5_-28" edge="1">
          <mxGeometry width="50" height="50" relative="1" as="geometry">
            <mxPoint x="737" y="278" as="sourcePoint" />
            <mxPoint x="737" y="308" as="targetPoint" />
          </mxGeometry>
        </mxCell>
        <mxCell id="2erEQNz_2pci9PgfNqx--6" value="" style="endArrow=classic;html=1;rounded=0;exitX=0.5;exitY=1;exitDx=0;exitDy=0;entryX=0.5;entryY=0;entryDx=0;entryDy=0;" parent="1" source="pwXzotiu01EJC3qDll5_-28" target="pwXzotiu01EJC3qDll5_-29" edge="1">
          <mxGeometry width="50" height="50" relative="1" as="geometry">
            <mxPoint x="657" y="378" as="sourcePoint" />
            <mxPoint x="657" y="408" as="targetPoint" />
          </mxGeometry>
        </mxCell>
        <mxCell id="2erEQNz_2pci9PgfNqx--18" value="" style="endArrow=classic;html=1;rounded=0;entryX=0.5;entryY=0;entryDx=0;entryDy=0;exitX=0.5;exitY=1;exitDx=0;exitDy=0;" parent="1" source="pwXzotiu01EJC3qDll5_-29" target="pwXzotiu01EJC3qDll5_-32" edge="1">
          <mxGeometry width="50" height="50" relative="1" as="geometry">
            <mxPoint x="397" y="563" as="sourcePoint" />
            <mxPoint x="502" y="608" as="targetPoint" />
          </mxGeometry>
        </mxCell>
        <mxCell id="2erEQNz_2pci9PgfNqx--19" value="" style="endArrow=classic;html=1;rounded=0;exitX=0;exitY=0.5;exitDx=0;exitDy=0;entryX=0.25;entryY=0;entryDx=0;entryDy=0;" parent="1" source="pwXzotiu01EJC3qDll5_-29" target="pwXzotiu01EJC3qDll5_-30" edge="1">
          <mxGeometry relative="1" as="geometry">
            <mxPoint x="187" y="378" as="sourcePoint" />
            <mxPoint x="287" y="378" as="targetPoint" />
          </mxGeometry>
        </mxCell>
        <mxCell id="2erEQNz_2pci9PgfNqx--20" value="&lt;font style=&quot;font-size: 13px;&quot; face=&quot;Times New Roman&quot;&gt;Giảng viên&lt;/font&gt;" style="edgeLabel;resizable=0;html=1;;align=center;verticalAlign=middle;" parent="2erEQNz_2pci9PgfNqx--19" connectable="0" vertex="1">
          <mxGeometry relative="1" as="geometry" />
        </mxCell>
        <mxCell id="2erEQNz_2pci9PgfNqx--22" value="" style="endArrow=classic;html=1;rounded=0;exitX=1;exitY=0.5;exitDx=0;exitDy=0;entryX=0.75;entryY=0;entryDx=0;entryDy=0;" parent="1" source="pwXzotiu01EJC3qDll5_-29" target="pwXzotiu01EJC3qDll5_-31" edge="1">
          <mxGeometry relative="1" as="geometry">
            <mxPoint x="584" y="488" as="sourcePoint" />
            <mxPoint x="407" y="533" as="targetPoint" />
          </mxGeometry>
        </mxCell>
        <mxCell id="2erEQNz_2pci9PgfNqx--23" value="&lt;font style=&quot;font-size: 13px;&quot; face=&quot;Times New Roman&quot;&gt;Học viên&lt;/font&gt;" style="edgeLabel;resizable=0;html=1;;align=center;verticalAlign=middle;" parent="2erEQNz_2pci9PgfNqx--22" connectable="0" vertex="1">
          <mxGeometry relative="1" as="geometry" />
        </mxCell>
        <mxCell id="2erEQNz_2pci9PgfNqx--24" value="" style="endArrow=classic;html=1;rounded=0;exitX=0.25;exitY=1;exitDx=0;exitDy=0;entryX=0;entryY=0.5;entryDx=0;entryDy=0;" parent="1" source="pwXzotiu01EJC3qDll5_-30" target="2erEQNz_2pci9PgfNqx--25" edge="1">
          <mxGeometry width="50" height="50" relative="1" as="geometry">
            <mxPoint x="517" y="608" as="sourcePoint" />
            <mxPoint x="567" y="558" as="targetPoint" />
          </mxGeometry>
        </mxCell>
        <mxCell id="2erEQNz_2pci9PgfNqx--25" value="&lt;font face=&quot;Times New Roman&quot;&gt;&lt;span style=&quot;font-size: 17px;&quot;&gt;KẾT THÚC&lt;/span&gt;&lt;/font&gt;" style="rounded=0;whiteSpace=wrap;html=1;fillColor=#f8cecc;strokeColor=#b85450;" parent="1" vertex="1">
          <mxGeometry x="522" y="688" width="120" height="30" as="geometry" />
        </mxCell>
        <mxCell id="2erEQNz_2pci9PgfNqx--27" value="" style="endArrow=classic;html=1;rounded=0;exitX=0.75;exitY=1;exitDx=0;exitDy=0;entryX=1;entryY=0.5;entryDx=0;entryDy=0;" parent="1" source="pwXzotiu01EJC3qDll5_-31" target="2erEQNz_2pci9PgfNqx--25" edge="1">
          <mxGeometry width="50" height="50" relative="1" as="geometry">
            <mxPoint x="497" y="678" as="sourcePoint" />
            <mxPoint x="766" y="823" as="targetPoint" />
          </mxGeometry>
        </mxCell>
        <mxCell id="2erEQNz_2pci9PgfNqx--28" value="" style="endArrow=classic;html=1;rounded=0;entryX=0.5;entryY=0;entryDx=0;entryDy=0;exitX=0.5;exitY=1;exitDx=0;exitDy=0;" parent="1" source="pwXzotiu01EJC3qDll5_-32" target="2erEQNz_2pci9PgfNqx--25" edge="1">
          <mxGeometry width="50" height="50" relative="1" as="geometry">
            <mxPoint x="577" y="588" as="sourcePoint" />
            <mxPoint x="577" y="668" as="targetPoint" />
          </mxGeometry>
        </mxCell>
        <mxCell id="AeR1aexHs59wuBgPqKbG-1" value="&lt;font face=&quot;Times New Roman&quot;&gt;&lt;span style=&quot;font-size: 14px;&quot;&gt;&lt;b&gt;TỔNG QUAN QUY TRÌNH NGHIỆP VỤ&lt;/b&gt;&lt;/span&gt;&lt;/font&gt;" style="shape=umlFrame;whiteSpace=wrap;html=1;pointerEvents=0;width=320;height=40;" vertex="1" parent="1">
          <mxGeometry x="10" y="9" width="1150" height="810" as="geometry" />
        </mxCell>
      </root>
    </mxGraphModel>
  </diagram>
  <diagram id="4-o5er5aCx6zPjP88nf0" name="FUNC-001">
    <mxGraphModel dx="1520" dy="781" grid="1" gridSize="10" guides="1" tooltips="1" connect="1" arrows="1" fold="1" page="1" pageScale="1" pageWidth="1169" pageHeight="827" math="0" shadow="0">
      <root>
        <mxCell id="0" />
        <mxCell id="1" parent="0" />
        <mxCell id="_INcvE48cHs-KFT-1D3S-1" value="&lt;font style=&quot;font-size: 17px;&quot; face=&quot;Times New Roman&quot;&gt;ADMIN / CÁN BỘ ĐÀO TẠO&lt;/font&gt;" style="rounded=0;whiteSpace=wrap;html=1;fillColor=#9AC7BF;fontColor=#333333;strokeColor=#666666;" parent="1" vertex="1">
          <mxGeometry x="467" y="30" width="235" height="50" as="geometry" />
        </mxCell>
        <mxCell id="_INcvE48cHs-KFT-1D3S-2" value="&lt;font face=&quot;Times New Roman&quot; style=&quot;font-size: 17px;&quot;&gt;CHỌN CHỨC NĂNG&lt;/font&gt;" style="rhombus;whiteSpace=wrap;html=1;fillColor=#fff2cc;strokeColor=#d6b656;" parent="1" vertex="1">
          <mxGeometry x="481" y="130" width="207.5" height="110" as="geometry" />
        </mxCell>
        <mxCell id="dalmqKgKiUdhA1kjEnWK-1" value="&lt;font style=&quot;font-size: 17px;&quot; face=&quot;Times New Roman&quot;&gt;NHẬP THÔNG TIN KHOÁ HỌC&lt;/font&gt;" style="rounded=0;whiteSpace=wrap;html=1;fillColor=#dae8fc;strokeColor=#6c8ebf;" parent="1" vertex="1">
          <mxGeometry x="60" y="300" width="310" height="50" as="geometry" />
        </mxCell>
        <mxCell id="dalmqKgKiUdhA1kjEnWK-2" value="&lt;font style=&quot;font-size: 17px;&quot; face=&quot;Times New Roman&quot;&gt;KIỂM TRA MÃ KHOÁ HỌC&lt;/font&gt;" style="rounded=0;whiteSpace=wrap;html=1;fillColor=#dae8fc;strokeColor=#6c8ebf;" parent="1" vertex="1">
          <mxGeometry x="60" y="400" width="310" height="50" as="geometry" />
        </mxCell>
        <mxCell id="dalmqKgKiUdhA1kjEnWK-3" value="&lt;font style=&quot;font-size: 17px;&quot; face=&quot;Times New Roman&quot;&gt;NHẬP THÔNG TIN HỌC PHẦN&lt;/font&gt;" style="rounded=0;whiteSpace=wrap;html=1;fillColor=#dae8fc;strokeColor=#6c8ebf;" parent="1" vertex="1">
          <mxGeometry x="429.75" y="300" width="310" height="50" as="geometry" />
        </mxCell>
        <mxCell id="dalmqKgKiUdhA1kjEnWK-4" value="&lt;font style=&quot;font-size: 17px;&quot; face=&quot;Times New Roman&quot;&gt;KIỂM TRA MÃ HỌC PHẦN&lt;/font&gt;" style="rounded=0;whiteSpace=wrap;html=1;fillColor=#dae8fc;strokeColor=#6c8ebf;" parent="1" vertex="1">
          <mxGeometry x="429.75" y="400" width="310" height="50" as="geometry" />
        </mxCell>
        <mxCell id="dalmqKgKiUdhA1kjEnWK-5" value="&lt;font style=&quot;font-size: 17px;&quot; face=&quot;Times New Roman&quot;&gt;CHỌN GIẢNG VIÊN TỪ DANH SÁCH&lt;/font&gt;" style="rounded=0;whiteSpace=wrap;html=1;fillColor=#dae8fc;strokeColor=#6c8ebf;" parent="1" vertex="1">
          <mxGeometry x="800" y="300" width="310" height="50" as="geometry" />
        </mxCell>
        <mxCell id="dalmqKgKiUdhA1kjEnWK-7" value="&lt;font style=&quot;font-size: 17px;&quot; face=&quot;Times New Roman&quot;&gt;KIỂM TRA TRÙNG LỊCH GIẢNG VIÊN&lt;/font&gt;" style="rounded=0;whiteSpace=wrap;html=1;fillColor=#dae8fc;strokeColor=#6c8ebf;" parent="1" vertex="1">
          <mxGeometry x="800" y="400" width="310" height="50" as="geometry" />
        </mxCell>
        <mxCell id="dalmqKgKiUdhA1kjEnWK-8" value="&lt;font style=&quot;font-size: 17px;&quot; face=&quot;Times New Roman&quot;&gt;LƯU VÀO CƠ SỞ DỮ LIỆU&lt;/font&gt;" style="rounded=0;whiteSpace=wrap;html=1;fillColor=#dae8fc;strokeColor=#6c8ebf;" parent="1" vertex="1">
          <mxGeometry x="429.75" y="500" width="310" height="50" as="geometry" />
        </mxCell>
        <mxCell id="dalmqKgKiUdhA1kjEnWK-10" value="&lt;font face=&quot;Times New Roman&quot; style=&quot;font-size: 17px;&quot;&gt;THÀNH CÔNG?&lt;/font&gt;" style="rhombus;whiteSpace=wrap;html=1;fillColor=#fff2cc;strokeColor=#d6b656;" parent="1" vertex="1">
          <mxGeometry x="481" y="590" width="207.5" height="110" as="geometry" />
        </mxCell>
        <mxCell id="dalmqKgKiUdhA1kjEnWK-11" value="&lt;font face=&quot;Times New Roman&quot;&gt;&lt;span style=&quot;font-size: 17px;&quot;&gt;HIỂN THỊ THÔNG BÁO &amp;amp; ĐỒNG BỘ DỮ LIỆU&lt;/span&gt;&lt;/font&gt;" style="rounded=0;whiteSpace=wrap;html=1;fillColor=#f8cecc;strokeColor=#b85450;" parent="1" vertex="1">
          <mxGeometry x="390" y="760" width="389.75" height="50" as="geometry" />
        </mxCell>
        <mxCell id="dalmqKgKiUdhA1kjEnWK-13" value="&lt;font style=&quot;font-size: 17px;&quot; face=&quot;Times New Roman&quot;&gt;HIỂN THỊ LỖI CHI TIẾT&lt;/font&gt;" style="rounded=0;whiteSpace=wrap;html=1;fillColor=#d5e8d4;strokeColor=#82b366;" parent="1" vertex="1">
          <mxGeometry x="800" y="620" width="310" height="50" as="geometry" />
        </mxCell>
        <mxCell id="dalmqKgKiUdhA1kjEnWK-14" value="" style="endArrow=classic;html=1;rounded=0;exitX=0.5;exitY=1;exitDx=0;exitDy=0;entryX=0.5;entryY=0;entryDx=0;entryDy=0;" parent="1" source="_INcvE48cHs-KFT-1D3S-1" target="_INcvE48cHs-KFT-1D3S-2" edge="1">
          <mxGeometry width="50" height="50" relative="1" as="geometry">
            <mxPoint x="560" y="590" as="sourcePoint" />
            <mxPoint x="610" y="540" as="targetPoint" />
          </mxGeometry>
        </mxCell>
        <mxCell id="dalmqKgKiUdhA1kjEnWK-16" value="" style="endArrow=classic;html=1;rounded=0;exitX=0;exitY=1;exitDx=0;exitDy=0;entryX=0.5;entryY=0;entryDx=0;entryDy=0;" parent="1" source="_INcvE48cHs-KFT-1D3S-2" target="dalmqKgKiUdhA1kjEnWK-1" edge="1">
          <mxGeometry width="50" height="50" relative="1" as="geometry">
            <mxPoint x="620" y="120" as="sourcePoint" />
            <mxPoint x="620" y="170" as="targetPoint" />
          </mxGeometry>
        </mxCell>
        <mxCell id="dalmqKgKiUdhA1kjEnWK-17" value="" style="endArrow=classic;html=1;rounded=0;exitX=1;exitY=1;exitDx=0;exitDy=0;entryX=0.5;entryY=0;entryDx=0;entryDy=0;" parent="1" source="_INcvE48cHs-KFT-1D3S-2" target="dalmqKgKiUdhA1kjEnWK-5" edge="1">
          <mxGeometry width="50" height="50" relative="1" as="geometry">
            <mxPoint x="1268" y="213" as="sourcePoint" />
            <mxPoint x="950" y="300" as="targetPoint" />
          </mxGeometry>
        </mxCell>
        <mxCell id="dalmqKgKiUdhA1kjEnWK-18" value="" style="endArrow=classic;html=1;rounded=0;exitX=0.5;exitY=1;exitDx=0;exitDy=0;entryX=0.5;entryY=0;entryDx=0;entryDy=0;" parent="1" source="_INcvE48cHs-KFT-1D3S-2" target="dalmqKgKiUdhA1kjEnWK-3" edge="1">
          <mxGeometry width="50" height="50" relative="1" as="geometry">
            <mxPoint x="620" y="150" as="sourcePoint" />
            <mxPoint x="620" y="200" as="targetPoint" />
          </mxGeometry>
        </mxCell>
        <mxCell id="dalmqKgKiUdhA1kjEnWK-19" value="" style="endArrow=classic;html=1;rounded=0;exitX=0.5;exitY=1;exitDx=0;exitDy=0;entryX=0.5;entryY=0;entryDx=0;entryDy=0;" parent="1" source="dalmqKgKiUdhA1kjEnWK-1" target="dalmqKgKiUdhA1kjEnWK-2" edge="1">
          <mxGeometry width="50" height="50" relative="1" as="geometry">
            <mxPoint x="650" y="230" as="sourcePoint" />
            <mxPoint x="650" y="280" as="targetPoint" />
          </mxGeometry>
        </mxCell>
        <mxCell id="dalmqKgKiUdhA1kjEnWK-20" value="" style="endArrow=classic;html=1;rounded=0;exitX=0.5;exitY=1;exitDx=0;exitDy=0;entryX=0.5;entryY=0;entryDx=0;entryDy=0;" parent="1" source="dalmqKgKiUdhA1kjEnWK-3" target="dalmqKgKiUdhA1kjEnWK-4" edge="1">
          <mxGeometry width="50" height="50" relative="1" as="geometry">
            <mxPoint x="410" y="340" as="sourcePoint" />
            <mxPoint x="410" y="390" as="targetPoint" />
          </mxGeometry>
        </mxCell>
        <mxCell id="dalmqKgKiUdhA1kjEnWK-21" value="" style="endArrow=classic;html=1;rounded=0;exitX=0.5;exitY=1;exitDx=0;exitDy=0;entryX=0.5;entryY=0;entryDx=0;entryDy=0;" parent="1" source="dalmqKgKiUdhA1kjEnWK-5" target="dalmqKgKiUdhA1kjEnWK-7" edge="1">
          <mxGeometry width="50" height="50" relative="1" as="geometry">
            <mxPoint x="690" y="370" as="sourcePoint" />
            <mxPoint x="690" y="420" as="targetPoint" />
          </mxGeometry>
        </mxCell>
        <mxCell id="dalmqKgKiUdhA1kjEnWK-22" value="" style="endArrow=classic;html=1;rounded=0;exitX=0.5;exitY=1;exitDx=0;exitDy=0;entryX=0.5;entryY=0;entryDx=0;entryDy=0;" parent="1" source="dalmqKgKiUdhA1kjEnWK-4" target="dalmqKgKiUdhA1kjEnWK-8" edge="1">
          <mxGeometry width="50" height="50" relative="1" as="geometry">
            <mxPoint x="980" y="360" as="sourcePoint" />
            <mxPoint x="980" y="410" as="targetPoint" />
          </mxGeometry>
        </mxCell>
        <mxCell id="dalmqKgKiUdhA1kjEnWK-23" value="" style="endArrow=classic;html=1;rounded=0;exitX=0.5;exitY=1;exitDx=0;exitDy=0;entryX=1;entryY=0.5;entryDx=0;entryDy=0;" parent="1" source="dalmqKgKiUdhA1kjEnWK-7" target="dalmqKgKiUdhA1kjEnWK-8" edge="1">
          <mxGeometry width="50" height="50" relative="1" as="geometry">
            <mxPoint x="800" y="460" as="sourcePoint" />
            <mxPoint x="800" y="510" as="targetPoint" />
          </mxGeometry>
        </mxCell>
        <mxCell id="dalmqKgKiUdhA1kjEnWK-24" value="" style="endArrow=classic;html=1;rounded=0;exitX=0.5;exitY=1;exitDx=0;exitDy=0;entryX=0;entryY=0.5;entryDx=0;entryDy=0;" parent="1" source="dalmqKgKiUdhA1kjEnWK-2" target="dalmqKgKiUdhA1kjEnWK-8" edge="1">
          <mxGeometry width="50" height="50" relative="1" as="geometry">
            <mxPoint x="975" y="530" as="sourcePoint" />
            <mxPoint x="760" y="605" as="targetPoint" />
          </mxGeometry>
        </mxCell>
        <mxCell id="dalmqKgKiUdhA1kjEnWK-25" value="" style="endArrow=classic;html=1;rounded=0;exitX=0.5;exitY=1;exitDx=0;exitDy=0;entryX=0.5;entryY=0;entryDx=0;entryDy=0;" parent="1" source="dalmqKgKiUdhA1kjEnWK-8" target="dalmqKgKiUdhA1kjEnWK-10" edge="1">
          <mxGeometry width="50" height="50" relative="1" as="geometry">
            <mxPoint x="620" y="480" as="sourcePoint" />
            <mxPoint x="620" y="530" as="targetPoint" />
          </mxGeometry>
        </mxCell>
        <mxCell id="M6pxBQJoQ9ULQWroPc2n-1" value="" style="endArrow=classic;html=1;rounded=0;exitX=0.5;exitY=1;exitDx=0;exitDy=0;entryX=0.5;entryY=0;entryDx=0;entryDy=0;" parent="1" source="dalmqKgKiUdhA1kjEnWK-10" target="dalmqKgKiUdhA1kjEnWK-11" edge="1">
          <mxGeometry relative="1" as="geometry">
            <mxPoint x="717" y="715" as="sourcePoint" />
            <mxPoint x="540" y="760" as="targetPoint" />
          </mxGeometry>
        </mxCell>
        <mxCell id="M6pxBQJoQ9ULQWroPc2n-2" value="&lt;font face=&quot;Times New Roman&quot;&gt;&lt;span style=&quot;font-size: 13px;&quot;&gt;CÓ&lt;/span&gt;&lt;/font&gt;" style="edgeLabel;resizable=0;html=1;;align=center;verticalAlign=middle;" parent="M6pxBQJoQ9ULQWroPc2n-1" connectable="0" vertex="1">
          <mxGeometry relative="1" as="geometry" />
        </mxCell>
        <mxCell id="M6pxBQJoQ9ULQWroPc2n-3" value="" style="endArrow=classic;html=1;rounded=0;exitX=1;exitY=0.5;exitDx=0;exitDy=0;entryX=0;entryY=0.5;entryDx=0;entryDy=0;" parent="1" source="dalmqKgKiUdhA1kjEnWK-10" target="dalmqKgKiUdhA1kjEnWK-13" edge="1">
          <mxGeometry relative="1" as="geometry">
            <mxPoint x="917" y="700" as="sourcePoint" />
            <mxPoint x="740" y="745" as="targetPoint" />
          </mxGeometry>
        </mxCell>
        <mxCell id="M6pxBQJoQ9ULQWroPc2n-4" value="&lt;font style=&quot;font-size: 13px;&quot; face=&quot;Times New Roman&quot;&gt;KHÔNG&lt;/font&gt;" style="edgeLabel;resizable=0;html=1;;align=center;verticalAlign=middle;" parent="M6pxBQJoQ9ULQWroPc2n-3" connectable="0" vertex="1">
          <mxGeometry relative="1" as="geometry" />
        </mxCell>
        <mxCell id="BJ25PDuW_-mIZM61_Z_l-2" value="&lt;font style=&quot;font-size: 14px;&quot; face=&quot;Times New Roman&quot;&gt;&lt;b&gt;QUẢN LÝ KHOÁ HỌC / HỌC PHẦN&lt;/b&gt;&lt;/font&gt;" style="shape=umlFrame;whiteSpace=wrap;html=1;pointerEvents=0;width=320;height=40;" vertex="1" parent="1">
          <mxGeometry x="10" y="10" width="1150" height="810" as="geometry" />
        </mxCell>
      </root>
    </mxGraphModel>
  </diagram>
  <diagram id="GnISGA0_O3Xn9i05ctpr" name="FUNC-002">
    <mxGraphModel dx="1169" dy="601" grid="1" gridSize="10" guides="1" tooltips="1" connect="1" arrows="1" fold="1" page="1" pageScale="1" pageWidth="1169" pageHeight="827" math="0" shadow="0">
      <root>
        <mxCell id="0" />
        <mxCell id="1" parent="0" />
        <mxCell id="2gm4gL7MObneiQhdz5Be-28" value="&lt;font style=&quot;font-size: 17px;&quot; face=&quot;Times New Roman&quot;&gt;AMDIN&lt;/font&gt;" style="rounded=0;whiteSpace=wrap;html=1;fillColor=#9AC7BF;fontColor=#333333;strokeColor=#666666;" parent="1" vertex="1">
          <mxGeometry x="467" y="24" width="235" height="50" as="geometry" />
        </mxCell>
        <mxCell id="2gm4gL7MObneiQhdz5Be-29" value="&lt;font face=&quot;Times New Roman&quot; style=&quot;font-size: 17px;&quot;&gt;CHỌN NGUỒN&lt;br&gt;DỮ LIỆU&lt;/font&gt;" style="rhombus;whiteSpace=wrap;html=1;fillColor=#fff2cc;strokeColor=#d6b656;" parent="1" vertex="1">
          <mxGeometry x="481.25" y="90" width="207.5" height="110" as="geometry" />
        </mxCell>
        <mxCell id="2gm4gL7MObneiQhdz5Be-30" value="&lt;font style=&quot;font-size: 17px;&quot; face=&quot;Times New Roman&quot;&gt;UPLOAD FILE&lt;/font&gt;" style="rounded=0;whiteSpace=wrap;html=1;fillColor=#dae8fc;strokeColor=#6c8ebf;" parent="1" vertex="1">
          <mxGeometry x="157.5" y="210" width="310" height="50" as="geometry" />
        </mxCell>
        <mxCell id="2gm4gL7MObneiQhdz5Be-34" value="&lt;font style=&quot;font-size: 17px;&quot; face=&quot;Times New Roman&quot;&gt;GỌI API ĐỒNG BỘ&lt;/font&gt;" style="rounded=0;whiteSpace=wrap;html=1;fillColor=#dae8fc;strokeColor=#6c8ebf;" parent="1" vertex="1">
          <mxGeometry x="702.5" y="210" width="310" height="50" as="geometry" />
        </mxCell>
        <mxCell id="2gm4gL7MObneiQhdz5Be-40" value="" style="endArrow=classic;html=1;rounded=0;exitX=0.5;exitY=1;exitDx=0;exitDy=0;entryX=0.5;entryY=0;entryDx=0;entryDy=0;" parent="1" source="2gm4gL7MObneiQhdz5Be-28" target="2gm4gL7MObneiQhdz5Be-29" edge="1">
          <mxGeometry width="50" height="50" relative="1" as="geometry">
            <mxPoint x="560" y="584" as="sourcePoint" />
            <mxPoint x="610" y="534" as="targetPoint" />
          </mxGeometry>
        </mxCell>
        <mxCell id="2gm4gL7MObneiQhdz5Be-41" value="" style="endArrow=classic;html=1;rounded=0;exitX=0;exitY=1;exitDx=0;exitDy=0;entryX=0.5;entryY=0;entryDx=0;entryDy=0;" parent="1" source="2gm4gL7MObneiQhdz5Be-29" target="2gm4gL7MObneiQhdz5Be-30" edge="1">
          <mxGeometry width="50" height="50" relative="1" as="geometry">
            <mxPoint x="620" y="114" as="sourcePoint" />
            <mxPoint x="620" y="164" as="targetPoint" />
          </mxGeometry>
        </mxCell>
        <mxCell id="2gm4gL7MObneiQhdz5Be-42" value="" style="endArrow=classic;html=1;rounded=0;exitX=1;exitY=1;exitDx=0;exitDy=0;entryX=0.5;entryY=0;entryDx=0;entryDy=0;" parent="1" source="2gm4gL7MObneiQhdz5Be-29" target="2gm4gL7MObneiQhdz5Be-34" edge="1">
          <mxGeometry width="50" height="50" relative="1" as="geometry">
            <mxPoint x="1268" y="207" as="sourcePoint" />
            <mxPoint x="950" y="294" as="targetPoint" />
          </mxGeometry>
        </mxCell>
        <mxCell id="2gm4gL7MObneiQhdz5Be-56" value="&lt;font face=&quot;Times New Roman&quot;&gt;&lt;span style=&quot;font-size: 17px;&quot;&gt;KIỂM TRA ĐỊNH DẠNG FILE&lt;/span&gt;&lt;/font&gt;" style="rounded=0;whiteSpace=wrap;html=1;fillColor=#dae8fc;strokeColor=#6c8ebf;" parent="1" vertex="1">
          <mxGeometry x="157" y="290" width="310" height="50" as="geometry" />
        </mxCell>
        <mxCell id="2gm4gL7MObneiQhdz5Be-57" value="&lt;font style=&quot;font-size: 17px;&quot; face=&quot;Times New Roman&quot;&gt;KIỂM TRA KẾT NÔI API&lt;/font&gt;" style="rounded=0;whiteSpace=wrap;html=1;fillColor=#dae8fc;strokeColor=#6c8ebf;" parent="1" vertex="1">
          <mxGeometry x="702" y="290" width="310" height="50" as="geometry" />
        </mxCell>
        <mxCell id="2gm4gL7MObneiQhdz5Be-58" value="&lt;font style=&quot;font-size: 17px;&quot; face=&quot;Times New Roman&quot;&gt;PHÂN LỚP TỰ ĐỘNG&lt;/font&gt;" style="rounded=0;whiteSpace=wrap;html=1;fillColor=#dae8fc;strokeColor=#6c8ebf;" parent="1" vertex="1">
          <mxGeometry x="430" y="360" width="310" height="50" as="geometry" />
        </mxCell>
        <mxCell id="2gm4gL7MObneiQhdz5Be-59" value="&lt;font style=&quot;font-size: 17px;&quot; face=&quot;Times New Roman&quot;&gt;HIỂN THỊ XEM TRƯỚC&lt;/font&gt;" style="rounded=0;whiteSpace=wrap;html=1;fillColor=#dae8fc;strokeColor=#6c8ebf;" parent="1" vertex="1">
          <mxGeometry x="430" y="420" width="310" height="50" as="geometry" />
        </mxCell>
        <mxCell id="2gm4gL7MObneiQhdz5Be-60" value="&lt;font style=&quot;font-size: 17px;&quot; face=&quot;Times New Roman&quot;&gt;XÁC NHẬN DỮ LIỆU&lt;/font&gt;" style="rounded=0;whiteSpace=wrap;html=1;fillColor=#dae8fc;strokeColor=#6c8ebf;" parent="1" vertex="1">
          <mxGeometry x="430" y="480" width="310" height="50" as="geometry" />
        </mxCell>
        <mxCell id="2gm4gL7MObneiQhdz5Be-61" value="&lt;font style=&quot;font-size: 17px;&quot; face=&quot;Times New Roman&quot;&gt;LƯU TRỮ CƠ SỞ DỮ LIỆU&lt;/font&gt;" style="rounded=0;whiteSpace=wrap;html=1;fillColor=#dae8fc;strokeColor=#6c8ebf;" parent="1" vertex="1">
          <mxGeometry x="430" y="540" width="310" height="50" as="geometry" />
        </mxCell>
        <mxCell id="2gm4gL7MObneiQhdz5Be-62" value="" style="endArrow=classic;html=1;rounded=0;exitX=0;exitY=0.5;exitDx=0;exitDy=0;entryX=0;entryY=0.5;entryDx=0;entryDy=0;" parent="1" source="2gm4gL7MObneiQhdz5Be-58" target="2gm4gL7MObneiQhdz5Be-59" edge="1">
          <mxGeometry width="50" height="50" relative="1" as="geometry">
            <mxPoint x="300" y="440" as="sourcePoint" />
            <mxPoint x="350" y="390" as="targetPoint" />
            <Array as="points">
              <mxPoint x="400" y="385" />
              <mxPoint x="400" y="445" />
            </Array>
          </mxGeometry>
        </mxCell>
        <mxCell id="2gm4gL7MObneiQhdz5Be-64" value="" style="endArrow=classic;html=1;rounded=0;exitX=0;exitY=0.5;exitDx=0;exitDy=0;entryX=0;entryY=0.5;entryDx=0;entryDy=0;" parent="1" source="2gm4gL7MObneiQhdz5Be-60" target="2gm4gL7MObneiQhdz5Be-61" edge="1">
          <mxGeometry width="50" height="50" relative="1" as="geometry">
            <mxPoint x="430" y="530" as="sourcePoint" />
            <mxPoint x="430" y="600" as="targetPoint" />
            <Array as="points">
              <mxPoint x="400" y="505" />
              <mxPoint x="400" y="565" />
            </Array>
          </mxGeometry>
        </mxCell>
        <mxCell id="2gm4gL7MObneiQhdz5Be-65" value="" style="endArrow=classic;html=1;rounded=0;exitX=1;exitY=0.5;exitDx=0;exitDy=0;entryX=1;entryY=0.5;entryDx=0;entryDy=0;" parent="1" source="2gm4gL7MObneiQhdz5Be-59" target="2gm4gL7MObneiQhdz5Be-60" edge="1">
          <mxGeometry width="50" height="50" relative="1" as="geometry">
            <mxPoint x="560" y="460" as="sourcePoint" />
            <mxPoint x="610" y="410" as="targetPoint" />
            <Array as="points">
              <mxPoint x="770" y="445" />
              <mxPoint x="770" y="505" />
            </Array>
          </mxGeometry>
        </mxCell>
        <mxCell id="2gm4gL7MObneiQhdz5Be-66" value="" style="endArrow=classic;html=1;rounded=0;exitX=1;exitY=0.5;exitDx=0;exitDy=0;entryX=0.25;entryY=0;entryDx=0;entryDy=0;" parent="1" source="2gm4gL7MObneiQhdz5Be-56" target="2gm4gL7MObneiQhdz5Be-58" edge="1">
          <mxGeometry width="50" height="50" relative="1" as="geometry">
            <mxPoint x="560" y="490" as="sourcePoint" />
            <mxPoint x="610" y="440" as="targetPoint" />
            <Array as="points">
              <mxPoint x="508" y="315" />
            </Array>
          </mxGeometry>
        </mxCell>
        <mxCell id="2gm4gL7MObneiQhdz5Be-67" value="" style="endArrow=classic;html=1;rounded=0;entryX=0.75;entryY=0;entryDx=0;entryDy=0;exitX=0;exitY=0.5;exitDx=0;exitDy=0;" parent="1" source="2gm4gL7MObneiQhdz5Be-57" target="2gm4gL7MObneiQhdz5Be-58" edge="1">
          <mxGeometry width="50" height="50" relative="1" as="geometry">
            <mxPoint x="560" y="490" as="sourcePoint" />
            <mxPoint x="610" y="440" as="targetPoint" />
            <Array as="points">
              <mxPoint x="663" y="315" />
            </Array>
          </mxGeometry>
        </mxCell>
        <mxCell id="WWhrlF_vOnzx8FUsq45E-1" value="&lt;font face=&quot;Times New Roman&quot; style=&quot;font-size: 17px;&quot;&gt;THÀNH CÔNG?&lt;/font&gt;" style="rhombus;whiteSpace=wrap;html=1;fillColor=#fff2cc;strokeColor=#d6b656;" parent="1" vertex="1">
          <mxGeometry x="481.25" y="610" width="207.5" height="110" as="geometry" />
        </mxCell>
        <mxCell id="WWhrlF_vOnzx8FUsq45E-2" value="" style="endArrow=classic;html=1;rounded=0;exitX=0;exitY=0.5;exitDx=0;exitDy=0;entryX=0;entryY=0.5;entryDx=0;entryDy=0;" parent="1" source="2gm4gL7MObneiQhdz5Be-30" target="2gm4gL7MObneiQhdz5Be-56" edge="1">
          <mxGeometry width="50" height="50" relative="1" as="geometry">
            <mxPoint x="560" y="300" as="sourcePoint" />
            <mxPoint x="610" y="250" as="targetPoint" />
            <Array as="points">
              <mxPoint x="130" y="235" />
              <mxPoint x="130" y="315" />
            </Array>
          </mxGeometry>
        </mxCell>
        <mxCell id="WWhrlF_vOnzx8FUsq45E-3" value="" style="endArrow=classic;html=1;rounded=0;exitX=1;exitY=0.5;exitDx=0;exitDy=0;entryX=1;entryY=0.5;entryDx=0;entryDy=0;" parent="1" source="2gm4gL7MObneiQhdz5Be-34" target="2gm4gL7MObneiQhdz5Be-57" edge="1">
          <mxGeometry width="50" height="50" relative="1" as="geometry">
            <mxPoint x="560" y="300" as="sourcePoint" />
            <mxPoint x="610" y="250" as="targetPoint" />
            <Array as="points">
              <mxPoint x="1040" y="235" />
              <mxPoint x="1040" y="315" />
            </Array>
          </mxGeometry>
        </mxCell>
        <mxCell id="WWhrlF_vOnzx8FUsq45E-4" value="" style="endArrow=classic;html=1;rounded=0;entryX=0.5;entryY=0;entryDx=0;entryDy=0;exitX=0.5;exitY=1;exitDx=0;exitDy=0;" parent="1" source="2gm4gL7MObneiQhdz5Be-61" target="WWhrlF_vOnzx8FUsq45E-1" edge="1">
          <mxGeometry width="50" height="50" relative="1" as="geometry">
            <mxPoint x="360" y="560" as="sourcePoint" />
            <mxPoint x="410" y="510" as="targetPoint" />
          </mxGeometry>
        </mxCell>
        <mxCell id="CqF3Ujy6ZYpqw0JXHZso-1" value="&lt;font face=&quot;Times New Roman&quot;&gt;&lt;span style=&quot;font-size: 17px;&quot;&gt;HIỂN THỊ THÔNG BÁO &amp;amp; ĐỒNG BỘ DỮ LIỆU&lt;/span&gt;&lt;/font&gt;" style="rounded=0;whiteSpace=wrap;html=1;fillColor=#f8cecc;strokeColor=#b85450;" parent="1" vertex="1">
          <mxGeometry x="390.13" y="770" width="389.75" height="50" as="geometry" />
        </mxCell>
        <mxCell id="CqF3Ujy6ZYpqw0JXHZso-2" value="&lt;font style=&quot;font-size: 17px;&quot; face=&quot;Times New Roman&quot;&gt;HIỂN THỊ LỖI CHI TIẾT&lt;/font&gt;" style="rounded=0;whiteSpace=wrap;html=1;fillColor=#d5e8d4;strokeColor=#82b366;" parent="1" vertex="1">
          <mxGeometry x="810" y="640" width="310" height="50" as="geometry" />
        </mxCell>
        <mxCell id="CqF3Ujy6ZYpqw0JXHZso-3" value="" style="endArrow=classic;html=1;rounded=0;exitX=0.5;exitY=1;exitDx=0;exitDy=0;entryX=0.5;entryY=0;entryDx=0;entryDy=0;" parent="1" target="CqF3Ujy6ZYpqw0JXHZso-1" edge="1">
          <mxGeometry relative="1" as="geometry">
            <mxPoint x="585" y="717" as="sourcePoint" />
            <mxPoint x="540" y="777" as="targetPoint" />
          </mxGeometry>
        </mxCell>
        <mxCell id="CqF3Ujy6ZYpqw0JXHZso-4" value="&lt;font face=&quot;Times New Roman&quot;&gt;&lt;span style=&quot;font-size: 13px;&quot;&gt;CÓ&lt;/span&gt;&lt;/font&gt;" style="edgeLabel;resizable=0;html=1;;align=center;verticalAlign=middle;" parent="CqF3Ujy6ZYpqw0JXHZso-3" connectable="0" vertex="1">
          <mxGeometry relative="1" as="geometry" />
        </mxCell>
        <mxCell id="CqF3Ujy6ZYpqw0JXHZso-5" value="" style="endArrow=classic;html=1;rounded=0;exitX=1;exitY=0.5;exitDx=0;exitDy=0;entryX=0;entryY=0.5;entryDx=0;entryDy=0;" parent="1" source="WWhrlF_vOnzx8FUsq45E-1" target="CqF3Ujy6ZYpqw0JXHZso-2" edge="1">
          <mxGeometry relative="1" as="geometry">
            <mxPoint x="689" y="662" as="sourcePoint" />
            <mxPoint x="740" y="762" as="targetPoint" />
          </mxGeometry>
        </mxCell>
        <mxCell id="CqF3Ujy6ZYpqw0JXHZso-6" value="&lt;font style=&quot;font-size: 13px;&quot; face=&quot;Times New Roman&quot;&gt;KHÔNG&lt;/font&gt;" style="edgeLabel;resizable=0;html=1;;align=center;verticalAlign=middle;" parent="CqF3Ujy6ZYpqw0JXHZso-5" connectable="0" vertex="1">
          <mxGeometry relative="1" as="geometry" />
        </mxCell>
        <mxCell id="jSrUucW0Ggiyt3n2nrX4-1" value="&lt;font style=&quot;font-size: 14px;&quot; face=&quot;Times New Roman&quot;&gt;&lt;b&gt;QUẢN LÝ LỚP HỌC PHẦN&lt;/b&gt;&lt;/font&gt;" style="shape=umlFrame;whiteSpace=wrap;html=1;pointerEvents=0;width=320;height=40;" vertex="1" parent="1">
          <mxGeometry x="10.010000000000005" y="8" width="1150" height="810" as="geometry" />
        </mxCell>
      </root>
    </mxGraphModel>
  </diagram>
  <diagram id="bmQ4kJ0jJf56eC3K2Z0H" name="FUNC-003">
    <mxGraphModel dx="1788" dy="919" grid="1" gridSize="10" guides="1" tooltips="1" connect="1" arrows="1" fold="1" page="1" pageScale="1" pageWidth="1169" pageHeight="827" math="0" shadow="0">
      <root>
        <mxCell id="0" />
        <mxCell id="1" parent="0" />
        <mxCell id="SqNvz-7Ch9bymXa-fwps-1" value="&lt;font style=&quot;font-size: 17px;&quot; face=&quot;Times New Roman&quot;&gt;AMDIN&lt;/font&gt;" style="rounded=0;whiteSpace=wrap;html=1;fillColor=#9AC7BF;fontColor=#333333;strokeColor=#666666;" parent="1" vertex="1">
          <mxGeometry x="467" y="90" width="235" height="50" as="geometry" />
        </mxCell>
        <mxCell id="SqNvz-7Ch9bymXa-fwps-2" value="&lt;font face=&quot;Times New Roman&quot;&gt;&lt;span style=&quot;font-size: 17px;&quot;&gt;CHỌN LỊCH&lt;br&gt;CẦN TẠO&lt;/span&gt;&lt;/font&gt;" style="rhombus;whiteSpace=wrap;html=1;fillColor=#fff2cc;strokeColor=#d6b656;" parent="1" vertex="1">
          <mxGeometry x="481.25" y="156" width="207.5" height="110" as="geometry" />
        </mxCell>
        <mxCell id="SqNvz-7Ch9bymXa-fwps-3" value="&lt;font style=&quot;font-size: 17px;&quot; face=&quot;Times New Roman&quot;&gt;CHỌN LỚP, GIẢNG VIÊN,&lt;br&gt;PHÒNG HỌC&lt;/font&gt;" style="rounded=0;whiteSpace=wrap;html=1;fillColor=#dae8fc;strokeColor=#6c8ebf;" parent="1" vertex="1">
          <mxGeometry x="157.5" y="276" width="310" height="50" as="geometry" />
        </mxCell>
        <mxCell id="SqNvz-7Ch9bymXa-fwps-4" value="&lt;font style=&quot;font-size: 17px;&quot; face=&quot;Times New Roman&quot;&gt;CHỌN HỌC PHẦN, PHÒNG THI,&lt;br&gt;GIÁM THỊ&lt;/font&gt;" style="rounded=0;whiteSpace=wrap;html=1;fillColor=#dae8fc;strokeColor=#6c8ebf;" parent="1" vertex="1">
          <mxGeometry x="702.5" y="276" width="310" height="50" as="geometry" />
        </mxCell>
        <mxCell id="SqNvz-7Ch9bymXa-fwps-5" value="" style="endArrow=classic;html=1;rounded=0;exitX=0.5;exitY=1;exitDx=0;exitDy=0;entryX=0.5;entryY=0;entryDx=0;entryDy=0;" parent="1" source="SqNvz-7Ch9bymXa-fwps-1" target="SqNvz-7Ch9bymXa-fwps-2" edge="1">
          <mxGeometry width="50" height="50" relative="1" as="geometry">
            <mxPoint x="560" y="650" as="sourcePoint" />
            <mxPoint x="610" y="600" as="targetPoint" />
          </mxGeometry>
        </mxCell>
        <mxCell id="SqNvz-7Ch9bymXa-fwps-8" value="&lt;font face=&quot;Times New Roman&quot;&gt;&lt;span style=&quot;font-size: 17px;&quot;&gt;KIỂM TRA&amp;nbsp;&lt;/span&gt;&lt;/font&gt;&lt;div&gt;&lt;font face=&quot;Times New Roman&quot;&gt;&lt;span style=&quot;font-size: 17px;&quot;&gt;TRÙNG PHÒNG VÀ GIẢNG VIÊN&lt;/span&gt;&lt;/font&gt;&lt;/div&gt;" style="rounded=0;whiteSpace=wrap;html=1;fillColor=#dae8fc;strokeColor=#6c8ebf;" parent="1" vertex="1">
          <mxGeometry x="157" y="356" width="310" height="50" as="geometry" />
        </mxCell>
        <mxCell id="SqNvz-7Ch9bymXa-fwps-9" value="&lt;font face=&quot;Times New Roman&quot;&gt;&lt;span style=&quot;font-size: 17px;&quot;&gt;KIỂM TRA&lt;br&gt;TRÙNG PHÒNG VÀ GIÁM THỊ&lt;/span&gt;&lt;/font&gt;" style="rounded=0;whiteSpace=wrap;html=1;fillColor=#dae8fc;strokeColor=#6c8ebf;" parent="1" vertex="1">
          <mxGeometry x="702" y="356" width="310" height="50" as="geometry" />
        </mxCell>
        <mxCell id="SqNvz-7Ch9bymXa-fwps-20" value="" style="endArrow=classic;html=1;rounded=0;exitX=0;exitY=0.5;exitDx=0;exitDy=0;entryX=0;entryY=0.5;entryDx=0;entryDy=0;" parent="1" source="SqNvz-7Ch9bymXa-fwps-3" target="SqNvz-7Ch9bymXa-fwps-8" edge="1">
          <mxGeometry width="50" height="50" relative="1" as="geometry">
            <mxPoint x="560" y="366" as="sourcePoint" />
            <mxPoint x="610" y="316" as="targetPoint" />
            <Array as="points">
              <mxPoint x="130" y="301" />
              <mxPoint x="130" y="381" />
            </Array>
          </mxGeometry>
        </mxCell>
        <mxCell id="SqNvz-7Ch9bymXa-fwps-21" value="" style="endArrow=classic;html=1;rounded=0;exitX=1;exitY=0.5;exitDx=0;exitDy=0;entryX=1;entryY=0.5;entryDx=0;entryDy=0;" parent="1" source="SqNvz-7Ch9bymXa-fwps-4" target="SqNvz-7Ch9bymXa-fwps-9" edge="1">
          <mxGeometry width="50" height="50" relative="1" as="geometry">
            <mxPoint x="560" y="366" as="sourcePoint" />
            <mxPoint x="610" y="316" as="targetPoint" />
            <Array as="points">
              <mxPoint x="1040" y="301" />
              <mxPoint x="1040" y="381" />
            </Array>
          </mxGeometry>
        </mxCell>
        <mxCell id="SqNvz-7Ch9bymXa-fwps-29" value="&lt;font face=&quot;Times New Roman&quot;&gt;&lt;span style=&quot;font-size: 17px;&quot;&gt;LƯU LỊCH HỌC&lt;/span&gt;&lt;/font&gt;" style="rounded=0;whiteSpace=wrap;html=1;fillColor=#d5e8d4;strokeColor=#82b366;" parent="1" vertex="1">
          <mxGeometry x="430" y="580" width="310" height="50" as="geometry" />
        </mxCell>
        <mxCell id="SqNvz-7Ch9bymXa-fwps-33" value="" style="endArrow=classic;html=1;rounded=0;exitX=0.5;exitY=1;exitDx=0;exitDy=0;entryX=0.5;entryY=0;entryDx=0;entryDy=0;" parent="1" source="SqNvz-7Ch9bymXa-fwps-9" target="HqUbzPpxZYFu3Q4lbEqS-7" edge="1">
          <mxGeometry width="50" height="50" relative="1" as="geometry">
            <mxPoint x="510" y="640" as="sourcePoint" />
            <mxPoint x="980" y="460" as="targetPoint" />
            <Array as="points" />
          </mxGeometry>
        </mxCell>
        <mxCell id="HqUbzPpxZYFu3Q4lbEqS-1" value="" style="endArrow=classic;html=1;rounded=0;exitX=0;exitY=1;exitDx=0;exitDy=0;entryX=0.5;entryY=0;entryDx=0;entryDy=0;" parent="1" source="SqNvz-7Ch9bymXa-fwps-2" target="SqNvz-7Ch9bymXa-fwps-3" edge="1">
          <mxGeometry relative="1" as="geometry">
            <mxPoint x="667" y="150" as="sourcePoint" />
            <mxPoint x="490" y="195" as="targetPoint" />
          </mxGeometry>
        </mxCell>
        <mxCell id="HqUbzPpxZYFu3Q4lbEqS-2" value="&lt;font face=&quot;Times New Roman&quot;&gt;&lt;span style=&quot;font-size: 13px;&quot;&gt;Lịch học&lt;/span&gt;&lt;/font&gt;" style="edgeLabel;resizable=0;html=1;;align=center;verticalAlign=middle;" parent="HqUbzPpxZYFu3Q4lbEqS-1" connectable="0" vertex="1">
          <mxGeometry relative="1" as="geometry" />
        </mxCell>
        <mxCell id="HqUbzPpxZYFu3Q4lbEqS-4" value="" style="endArrow=classic;html=1;rounded=0;exitX=1;exitY=1;exitDx=0;exitDy=0;entryX=0.5;entryY=0;entryDx=0;entryDy=0;" parent="1" source="SqNvz-7Ch9bymXa-fwps-2" target="SqNvz-7Ch9bymXa-fwps-4" edge="1">
          <mxGeometry relative="1" as="geometry">
            <mxPoint x="740" y="270" as="sourcePoint" />
            <mxPoint x="520" y="307" as="targetPoint" />
          </mxGeometry>
        </mxCell>
        <mxCell id="HqUbzPpxZYFu3Q4lbEqS-5" value="&lt;font face=&quot;Times New Roman&quot;&gt;&lt;span style=&quot;font-size: 13px;&quot;&gt;Lịch thi&lt;/span&gt;&lt;/font&gt;" style="edgeLabel;resizable=0;html=1;;align=center;verticalAlign=middle;" parent="HqUbzPpxZYFu3Q4lbEqS-4" connectable="0" vertex="1">
          <mxGeometry relative="1" as="geometry" />
        </mxCell>
        <mxCell id="HqUbzPpxZYFu3Q4lbEqS-6" value="&lt;font face=&quot;Times New Roman&quot;&gt;&lt;span style=&quot;font-size: 17px;&quot;&gt;KIỂM TRA?&lt;/span&gt;&lt;/font&gt;" style="rhombus;whiteSpace=wrap;html=1;fillColor=#fff2cc;strokeColor=#d6b656;" parent="1" vertex="1">
          <mxGeometry x="208.75" y="450" width="207.5" height="110" as="geometry" />
        </mxCell>
        <mxCell id="HqUbzPpxZYFu3Q4lbEqS-7" value="&lt;font face=&quot;Times New Roman&quot;&gt;&lt;span style=&quot;font-size: 17px;&quot;&gt;KIỂM TRA?&lt;/span&gt;&lt;/font&gt;" style="rhombus;whiteSpace=wrap;html=1;fillColor=#fff2cc;strokeColor=#d6b656;" parent="1" vertex="1">
          <mxGeometry x="753.75" y="450" width="207.5" height="110" as="geometry" />
        </mxCell>
        <mxCell id="HqUbzPpxZYFu3Q4lbEqS-9" value="" style="endArrow=classic;html=1;rounded=0;exitX=0.5;exitY=1;exitDx=0;exitDy=0;entryX=0.5;entryY=0;entryDx=0;entryDy=0;" parent="1" source="SqNvz-7Ch9bymXa-fwps-8" target="HqUbzPpxZYFu3Q4lbEqS-6" edge="1">
          <mxGeometry width="50" height="50" relative="1" as="geometry">
            <mxPoint x="350" y="460" as="sourcePoint" />
            <mxPoint x="400" y="410" as="targetPoint" />
          </mxGeometry>
        </mxCell>
        <mxCell id="dovP54k-X8DLGV8Ip10F-1" value="" style="endArrow=classic;html=1;rounded=0;exitX=0.5;exitY=1;exitDx=0;exitDy=0;entryX=0;entryY=0.25;entryDx=0;entryDy=0;" parent="1" source="HqUbzPpxZYFu3Q4lbEqS-6" target="6CNXMU3iNdCLV_XrAd1W-2" edge="1">
          <mxGeometry relative="1" as="geometry">
            <mxPoint x="120" y="720" as="sourcePoint" />
            <mxPoint x="313" y="680" as="targetPoint" />
            <Array as="points">
              <mxPoint x="313" y="663" />
            </Array>
          </mxGeometry>
        </mxCell>
        <mxCell id="dovP54k-X8DLGV8Ip10F-2" value="&lt;font style=&quot;font-size: 13px;&quot; face=&quot;Times New Roman&quot;&gt;KHÔNG HỢP LỆ&lt;/font&gt;" style="edgeLabel;resizable=0;html=1;;align=center;verticalAlign=middle;" parent="dovP54k-X8DLGV8Ip10F-1" connectable="0" vertex="1">
          <mxGeometry relative="1" as="geometry" />
        </mxCell>
        <mxCell id="dovP54k-X8DLGV8Ip10F-3" value="" style="endArrow=classic;html=1;rounded=0;exitX=0.5;exitY=1;exitDx=0;exitDy=0;entryX=1;entryY=0.25;entryDx=0;entryDy=0;" parent="1" source="HqUbzPpxZYFu3Q4lbEqS-7" target="6CNXMU3iNdCLV_XrAd1W-2" edge="1">
          <mxGeometry relative="1" as="geometry">
            <mxPoint x="856.9100000000001" y="560" as="sourcePoint" />
            <mxPoint x="857" y="680" as="targetPoint" />
            <Array as="points">
              <mxPoint x="858" y="663" />
            </Array>
          </mxGeometry>
        </mxCell>
        <mxCell id="dovP54k-X8DLGV8Ip10F-4" value="&lt;font style=&quot;font-size: 13px;&quot; face=&quot;Times New Roman&quot;&gt;KHÔNG HỢP LỆ&lt;/font&gt;" style="edgeLabel;resizable=0;html=1;;align=center;verticalAlign=middle;" parent="dovP54k-X8DLGV8Ip10F-3" connectable="0" vertex="1">
          <mxGeometry relative="1" as="geometry" />
        </mxCell>
        <mxCell id="dovP54k-X8DLGV8Ip10F-5" value="" style="endArrow=classic;html=1;rounded=0;exitX=1;exitY=0.5;exitDx=0;exitDy=0;entryX=0.5;entryY=0;entryDx=0;entryDy=0;" parent="1" source="HqUbzPpxZYFu3Q4lbEqS-6" target="SqNvz-7Ch9bymXa-fwps-29" edge="1">
          <mxGeometry relative="1" as="geometry">
            <mxPoint x="410" y="570" as="sourcePoint" />
            <mxPoint x="410" y="760" as="targetPoint" />
          </mxGeometry>
        </mxCell>
        <mxCell id="dovP54k-X8DLGV8Ip10F-6" value="&lt;font style=&quot;font-size: 13px;&quot; face=&quot;Times New Roman&quot;&gt;HỢP LỆ&lt;/font&gt;" style="edgeLabel;resizable=0;html=1;;align=center;verticalAlign=middle;" parent="dovP54k-X8DLGV8Ip10F-5" connectable="0" vertex="1">
          <mxGeometry relative="1" as="geometry" />
        </mxCell>
        <mxCell id="dovP54k-X8DLGV8Ip10F-7" value="" style="endArrow=classic;html=1;rounded=0;exitX=0;exitY=0.5;exitDx=0;exitDy=0;entryX=0.5;entryY=0;entryDx=0;entryDy=0;" parent="1" source="HqUbzPpxZYFu3Q4lbEqS-7" target="SqNvz-7Ch9bymXa-fwps-29" edge="1">
          <mxGeometry relative="1" as="geometry">
            <mxPoint x="570" y="550" as="sourcePoint" />
            <mxPoint x="570" y="740" as="targetPoint" />
          </mxGeometry>
        </mxCell>
        <mxCell id="dovP54k-X8DLGV8Ip10F-8" value="&lt;font style=&quot;font-size: 13px;&quot; face=&quot;Times New Roman&quot;&gt;HỢP LỆ&lt;/font&gt;" style="edgeLabel;resizable=0;html=1;;align=center;verticalAlign=middle;" parent="dovP54k-X8DLGV8Ip10F-7" connectable="0" vertex="1">
          <mxGeometry relative="1" as="geometry" />
        </mxCell>
        <mxCell id="6CNXMU3iNdCLV_XrAd1W-2" value="&lt;font face=&quot;Times New Roman&quot;&gt;&lt;span style=&quot;font-size: 17px;&quot;&gt;GỢI Ý LỊCH KHÁC&lt;/span&gt;&lt;/font&gt;" style="rounded=0;whiteSpace=wrap;html=1;fillColor=#f8cecc;strokeColor=#b85450;" parent="1" vertex="1">
          <mxGeometry x="430" y="650" width="310" height="50" as="geometry" />
        </mxCell>
        <mxCell id="6CNXMU3iNdCLV_XrAd1W-3" value="" style="endArrow=classic;html=1;rounded=0;entryX=0;entryY=1;entryDx=0;entryDy=0;exitX=0;exitY=0.75;exitDx=0;exitDy=0;" parent="1" source="6CNXMU3iNdCLV_XrAd1W-2" target="SqNvz-7Ch9bymXa-fwps-8" edge="1">
          <mxGeometry width="50" height="50" relative="1" as="geometry">
            <mxPoint x="210" y="720" as="sourcePoint" />
            <mxPoint x="260" y="670" as="targetPoint" />
            <Array as="points">
              <mxPoint x="160" y="690" />
            </Array>
          </mxGeometry>
        </mxCell>
        <mxCell id="6CNXMU3iNdCLV_XrAd1W-4" value="" style="endArrow=classic;html=1;rounded=0;entryX=1;entryY=1;entryDx=0;entryDy=0;exitX=1;exitY=0.75;exitDx=0;exitDy=0;" parent="1" source="6CNXMU3iNdCLV_XrAd1W-2" target="SqNvz-7Ch9bymXa-fwps-9" edge="1">
          <mxGeometry width="50" height="50" relative="1" as="geometry">
            <mxPoint x="613" y="991" as="sourcePoint" />
            <mxPoint x="340" y="710" as="targetPoint" />
            <Array as="points">
              <mxPoint x="1010" y="688" />
            </Array>
          </mxGeometry>
        </mxCell>
        <mxCell id="nvioksLpeUyWZ99p-1G1-1" value="&lt;font style=&quot;font-size: 14px;&quot; face=&quot;Times New Roman&quot;&gt;&lt;b&gt;LẬP THỜI KHOÁ BIỂU&lt;/b&gt;&lt;/font&gt;" style="shape=umlFrame;whiteSpace=wrap;html=1;pointerEvents=0;width=320;height=40;" vertex="1" parent="1">
          <mxGeometry x="10" y="9" width="1150" height="810" as="geometry" />
        </mxCell>
      </root>
    </mxGraphModel>
  </diagram>
  <diagram id="dFuzdf6zS8aM8Ue615HZ" name="FUNC-004">
    <mxGraphModel dx="1048" dy="539" grid="1" gridSize="10" guides="1" tooltips="1" connect="1" arrows="1" fold="1" page="1" pageScale="1" pageWidth="1169" pageHeight="827" math="0" shadow="0">
      <root>
        <mxCell id="0" />
        <mxCell id="1" parent="0" />
        <mxCell id="DoxnnLynsLzyj0uodw8R-1" value="&lt;font style=&quot;font-size: 17px;&quot; face=&quot;Times New Roman&quot;&gt;AMDIN / GIẢNG VIÊN&lt;/font&gt;" style="rounded=0;whiteSpace=wrap;html=1;fillColor=#9AC7BF;fontColor=#333333;strokeColor=#666666;" parent="1" vertex="1">
          <mxGeometry x="417" y="88" width="235" height="50" as="geometry" />
        </mxCell>
        <mxCell id="DoxnnLynsLzyj0uodw8R-2" value="&lt;font face=&quot;Times New Roman&quot;&gt;&lt;span style=&quot;font-size: 17px;&quot;&gt;LOẠI THÔNG BÁO&lt;/span&gt;&lt;/font&gt;" style="rhombus;whiteSpace=wrap;html=1;fillColor=#fff2cc;strokeColor=#d6b656;" parent="1" vertex="1">
          <mxGeometry x="431.25" y="154" width="207.5" height="110" as="geometry" />
        </mxCell>
        <mxCell id="DoxnnLynsLzyj0uodw8R-3" value="&lt;font face=&quot;Times New Roman&quot;&gt;&lt;span style=&quot;font-size: 17px;&quot;&gt;HỆ THỐNG TỰ SINH NỘI DUNG&lt;br&gt;THEO THIẾT KẾ BAN ĐẦU&lt;/span&gt;&lt;/font&gt;" style="rounded=0;whiteSpace=wrap;html=1;fillColor=#dae8fc;strokeColor=#6c8ebf;" parent="1" vertex="1">
          <mxGeometry x="160" y="309" width="310" height="50" as="geometry" />
        </mxCell>
        <mxCell id="DoxnnLynsLzyj0uodw8R-4" value="&lt;font face=&quot;Times New Roman&quot;&gt;&lt;span style=&quot;font-size: 17px;&quot;&gt;NHẬP TIÊU ĐỀ, NỘI DUNG TUỲ CHỈNH&lt;/span&gt;&lt;/font&gt;" style="rounded=0;whiteSpace=wrap;html=1;fillColor=#dae8fc;strokeColor=#6c8ebf;" parent="1" vertex="1">
          <mxGeometry x="590" y="309" width="310" height="50" as="geometry" />
        </mxCell>
        <mxCell id="DoxnnLynsLzyj0uodw8R-5" value="" style="endArrow=classic;html=1;rounded=0;exitX=0.5;exitY=1;exitDx=0;exitDy=0;entryX=0.5;entryY=0;entryDx=0;entryDy=0;" parent="1" source="DoxnnLynsLzyj0uodw8R-1" target="DoxnnLynsLzyj0uodw8R-2" edge="1">
          <mxGeometry width="50" height="50" relative="1" as="geometry">
            <mxPoint x="510" y="648" as="sourcePoint" />
            <mxPoint x="560" y="598" as="targetPoint" />
          </mxGeometry>
        </mxCell>
        <mxCell id="DoxnnLynsLzyj0uodw8R-12" value="" style="endArrow=classic;html=1;rounded=0;exitX=0;exitY=1;exitDx=0;exitDy=0;entryX=0.5;entryY=0;entryDx=0;entryDy=0;" parent="1" source="DoxnnLynsLzyj0uodw8R-2" target="DoxnnLynsLzyj0uodw8R-3" edge="1">
          <mxGeometry relative="1" as="geometry">
            <mxPoint x="617" y="148" as="sourcePoint" />
            <mxPoint x="440" y="193" as="targetPoint" />
          </mxGeometry>
        </mxCell>
        <mxCell id="DoxnnLynsLzyj0uodw8R-13" value="&lt;font face=&quot;Times New Roman&quot;&gt;&lt;span style=&quot;font-size: 13px;&quot;&gt;Tự động&lt;/span&gt;&lt;/font&gt;" style="edgeLabel;resizable=0;html=1;;align=center;verticalAlign=middle;" parent="DoxnnLynsLzyj0uodw8R-12" connectable="0" vertex="1">
          <mxGeometry relative="1" as="geometry" />
        </mxCell>
        <mxCell id="DoxnnLynsLzyj0uodw8R-14" value="" style="endArrow=classic;html=1;rounded=0;exitX=1;exitY=1;exitDx=0;exitDy=0;entryX=0.5;entryY=0;entryDx=0;entryDy=0;" parent="1" source="DoxnnLynsLzyj0uodw8R-2" target="DoxnnLynsLzyj0uodw8R-4" edge="1">
          <mxGeometry relative="1" as="geometry">
            <mxPoint x="690" y="268" as="sourcePoint" />
            <mxPoint x="470" y="305" as="targetPoint" />
          </mxGeometry>
        </mxCell>
        <mxCell id="DoxnnLynsLzyj0uodw8R-15" value="&lt;font face=&quot;Times New Roman&quot;&gt;&lt;span style=&quot;font-size: 13px;&quot;&gt;Thủ công&lt;/span&gt;&lt;/font&gt;" style="edgeLabel;resizable=0;html=1;;align=center;verticalAlign=middle;" parent="DoxnnLynsLzyj0uodw8R-14" connectable="0" vertex="1">
          <mxGeometry relative="1" as="geometry" />
        </mxCell>
        <mxCell id="DoxnnLynsLzyj0uodw8R-32" value="&lt;font face=&quot;Times New Roman&quot;&gt;&lt;span style=&quot;font-size: 17px;&quot;&gt;GỬI VÀ LƯU LỊCH SỬ&lt;/span&gt;&lt;/font&gt;" style="rounded=0;whiteSpace=wrap;html=1;fillColor=#dae8fc;strokeColor=#6c8ebf;" parent="1" vertex="1">
          <mxGeometry x="380" y="429" width="310" height="50" as="geometry" />
        </mxCell>
        <mxCell id="DoxnnLynsLzyj0uodw8R-33" value="" style="endArrow=classic;html=1;rounded=0;exitX=0.25;exitY=1;exitDx=0;exitDy=0;entryX=0;entryY=0.5;entryDx=0;entryDy=0;" parent="1" source="DoxnnLynsLzyj0uodw8R-3" target="DoxnnLynsLzyj0uodw8R-32" edge="1">
          <mxGeometry width="50" height="50" relative="1" as="geometry">
            <mxPoint x="640" y="299" as="sourcePoint" />
            <mxPoint x="690" y="249" as="targetPoint" />
            <Array as="points">
              <mxPoint x="270" y="419" />
            </Array>
          </mxGeometry>
        </mxCell>
        <mxCell id="DoxnnLynsLzyj0uodw8R-34" value="" style="endArrow=classic;html=1;rounded=0;exitX=0.75;exitY=1;exitDx=0;exitDy=0;entryX=1;entryY=0.5;entryDx=0;entryDy=0;" parent="1" source="DoxnnLynsLzyj0uodw8R-4" target="DoxnnLynsLzyj0uodw8R-32" edge="1">
          <mxGeometry width="50" height="50" relative="1" as="geometry">
            <mxPoint x="240" y="379" as="sourcePoint" />
            <mxPoint x="290" y="329" as="targetPoint" />
            <Array as="points">
              <mxPoint x="790" y="419" />
            </Array>
          </mxGeometry>
        </mxCell>
        <mxCell id="DoxnnLynsLzyj0uodw8R-35" value="&lt;font face=&quot;Times New Roman&quot;&gt;&lt;span style=&quot;font-size: 17px;&quot;&gt;TRẠNG THÁI GỬI&lt;/span&gt;&lt;/font&gt;" style="rhombus;whiteSpace=wrap;html=1;fillColor=#fff2cc;strokeColor=#d6b656;" parent="1" vertex="1">
          <mxGeometry x="431.25" y="519" width="207.5" height="110" as="geometry" />
        </mxCell>
        <mxCell id="DoxnnLynsLzyj0uodw8R-36" value="" style="endArrow=classic;html=1;rounded=0;exitX=0.5;exitY=1;exitDx=0;exitDy=0;entryX=0.5;entryY=0;entryDx=0;entryDy=0;" parent="1" source="DoxnnLynsLzyj0uodw8R-32" target="DoxnnLynsLzyj0uodw8R-35" edge="1">
          <mxGeometry width="50" height="50" relative="1" as="geometry">
            <mxPoint x="640" y="489" as="sourcePoint" />
            <mxPoint x="690" y="439" as="targetPoint" />
          </mxGeometry>
        </mxCell>
        <mxCell id="-Q-VxBg38G9D7GFY2JLI-1" value="&lt;font face=&quot;Times New Roman&quot;&gt;&lt;span style=&quot;font-size: 17px;&quot;&gt;HIỂN THỊ THÔNG BÁO &amp;amp; ĐỒNG BỘ DỮ LIỆU&lt;/span&gt;&lt;/font&gt;" style="rounded=0;whiteSpace=wrap;html=1;fillColor=#f8cecc;strokeColor=#b85450;" parent="1" vertex="1">
          <mxGeometry x="340" y="689" width="389.75" height="50" as="geometry" />
        </mxCell>
        <mxCell id="-Q-VxBg38G9D7GFY2JLI-2" value="&lt;font style=&quot;font-size: 17px;&quot; face=&quot;Times New Roman&quot;&gt;HIỂN THỊ THÔNG BÁO ĐÃ GỬI&lt;/font&gt;" style="rounded=0;whiteSpace=wrap;html=1;fillColor=#d5e8d4;strokeColor=#82b366;" parent="1" vertex="1">
          <mxGeometry x="789.9999999999999" y="549" width="310" height="50" as="geometry" />
        </mxCell>
        <mxCell id="-Q-VxBg38G9D7GFY2JLI-3" value="" style="endArrow=classic;html=1;rounded=0;entryX=0.5;entryY=0;entryDx=0;entryDy=0;exitX=0.5;exitY=1;exitDx=0;exitDy=0;" parent="1" source="DoxnnLynsLzyj0uodw8R-35" target="-Q-VxBg38G9D7GFY2JLI-1" edge="1">
          <mxGeometry relative="1" as="geometry">
            <mxPoint x="535" y="629" as="sourcePoint" />
            <mxPoint x="489.87" y="696" as="targetPoint" />
          </mxGeometry>
        </mxCell>
        <mxCell id="-Q-VxBg38G9D7GFY2JLI-4" value="&lt;font face=&quot;Times New Roman&quot;&gt;&lt;span style=&quot;font-size: 13px;&quot;&gt;THẤT BẠI&lt;/span&gt;&lt;/font&gt;" style="edgeLabel;resizable=0;html=1;;align=center;verticalAlign=middle;" parent="-Q-VxBg38G9D7GFY2JLI-3" connectable="0" vertex="1">
          <mxGeometry relative="1" as="geometry" />
        </mxCell>
        <mxCell id="-Q-VxBg38G9D7GFY2JLI-5" value="" style="endArrow=classic;html=1;rounded=0;exitX=1;exitY=0.5;exitDx=0;exitDy=0;entryX=0;entryY=0.5;entryDx=0;entryDy=0;" parent="1" source="DoxnnLynsLzyj0uodw8R-35" target="-Q-VxBg38G9D7GFY2JLI-2" edge="1">
          <mxGeometry relative="1" as="geometry">
            <mxPoint x="638.87" y="584" as="sourcePoint" />
            <mxPoint x="689.8699999999999" y="681" as="targetPoint" />
          </mxGeometry>
        </mxCell>
        <mxCell id="-Q-VxBg38G9D7GFY2JLI-6" value="&lt;font style=&quot;font-size: 13px;&quot; face=&quot;Times New Roman&quot;&gt;THÀNH CÔNG&lt;/font&gt;" style="edgeLabel;resizable=0;html=1;;align=center;verticalAlign=middle;" parent="-Q-VxBg38G9D7GFY2JLI-5" connectable="0" vertex="1">
          <mxGeometry relative="1" as="geometry" />
        </mxCell>
        <mxCell id="E_Crn5JoezdGrRiGcJFb-1" value="&lt;font style=&quot;font-size: 14px;&quot; face=&quot;Times New Roman&quot;&gt;&lt;b&gt;GỬI THÔNG BÁO&lt;/b&gt;&lt;/font&gt;" style="shape=umlFrame;whiteSpace=wrap;html=1;pointerEvents=0;width=320;height=40;" vertex="1" parent="1">
          <mxGeometry x="10" y="9" width="1150" height="810" as="geometry" />
        </mxCell>
      </root>
    </mxGraphModel>
  </diagram>
  <diagram id="HBRllnL30mlm7UjCu0J0" name="FUNC-005">
    <mxGraphModel dx="1448" dy="744" grid="1" gridSize="10" guides="1" tooltips="1" connect="1" arrows="1" fold="1" page="1" pageScale="1" pageWidth="1169" pageHeight="827" math="0" shadow="0">
      <root>
        <mxCell id="0" />
        <mxCell id="1" parent="0" />
        <mxCell id="RYqy_tlMx3eTxnb2jSmo-1" value="&lt;font style=&quot;font-size: 17px;&quot; face=&quot;Times New Roman&quot;&gt;ADMIN&lt;/font&gt;" style="rounded=0;whiteSpace=wrap;html=1;fillColor=#9AC7BF;fontColor=#333333;strokeColor=#666666;" parent="1" vertex="1">
          <mxGeometry x="472" y="79" width="235" height="50" as="geometry" />
        </mxCell>
        <mxCell id="RYqy_tlMx3eTxnb2jSmo-2" value="&lt;font face=&quot;Times New Roman&quot;&gt;&lt;span style=&quot;font-size: 17px;&quot;&gt;CHỌN PHƯƠNG THỨC&lt;/span&gt;&lt;/font&gt;" style="rhombus;whiteSpace=wrap;html=1;fillColor=#fff2cc;strokeColor=#d6b656;" parent="1" vertex="1">
          <mxGeometry x="477.63" y="159" width="223.75" height="114" as="geometry" />
        </mxCell>
        <mxCell id="RYqy_tlMx3eTxnb2jSmo-3" value="&lt;font face=&quot;Times New Roman&quot;&gt;&lt;span style=&quot;font-size: 17px;&quot;&gt;KIỂM TRA ĐỊNH DẠNG&lt;/span&gt;&lt;/font&gt;" style="rounded=0;whiteSpace=wrap;html=1;fillColor=#dae8fc;strokeColor=#6c8ebf;" parent="1" vertex="1">
          <mxGeometry x="215" y="300" width="310" height="50" as="geometry" />
        </mxCell>
        <mxCell id="RYqy_tlMx3eTxnb2jSmo-4" value="&lt;font face=&quot;Times New Roman&quot;&gt;&lt;span style=&quot;font-size: 17px;&quot;&gt;GỌI API SIS&lt;/span&gt;&lt;/font&gt;" style="rounded=0;whiteSpace=wrap;html=1;fillColor=#dae8fc;strokeColor=#6c8ebf;" parent="1" vertex="1">
          <mxGeometry x="645" y="300" width="310" height="50" as="geometry" />
        </mxCell>
        <mxCell id="RYqy_tlMx3eTxnb2jSmo-5" value="" style="endArrow=classic;html=1;rounded=0;exitX=0.5;exitY=1;exitDx=0;exitDy=0;entryX=0.5;entryY=0;entryDx=0;entryDy=0;" parent="1" source="RYqy_tlMx3eTxnb2jSmo-1" target="RYqy_tlMx3eTxnb2jSmo-2" edge="1">
          <mxGeometry width="50" height="50" relative="1" as="geometry">
            <mxPoint x="565" y="639" as="sourcePoint" />
            <mxPoint x="615" y="589" as="targetPoint" />
          </mxGeometry>
        </mxCell>
        <mxCell id="RYqy_tlMx3eTxnb2jSmo-6" value="" style="endArrow=classic;html=1;rounded=0;exitX=0;exitY=1;exitDx=0;exitDy=0;entryX=0.5;entryY=0;entryDx=0;entryDy=0;" parent="1" source="RYqy_tlMx3eTxnb2jSmo-2" target="RYqy_tlMx3eTxnb2jSmo-3" edge="1">
          <mxGeometry relative="1" as="geometry">
            <mxPoint x="672" y="139" as="sourcePoint" />
            <mxPoint x="495" y="184" as="targetPoint" />
          </mxGeometry>
        </mxCell>
        <mxCell id="RYqy_tlMx3eTxnb2jSmo-7" value="&lt;font face=&quot;Times New Roman&quot;&gt;&lt;span style=&quot;font-size: 13px;&quot;&gt;File upload&lt;/span&gt;&lt;/font&gt;" style="edgeLabel;resizable=0;html=1;;align=center;verticalAlign=middle;" parent="RYqy_tlMx3eTxnb2jSmo-6" connectable="0" vertex="1">
          <mxGeometry relative="1" as="geometry" />
        </mxCell>
        <mxCell id="RYqy_tlMx3eTxnb2jSmo-8" value="" style="endArrow=classic;html=1;rounded=0;exitX=1;exitY=1;exitDx=0;exitDy=0;entryX=0.5;entryY=0;entryDx=0;entryDy=0;" parent="1" source="RYqy_tlMx3eTxnb2jSmo-2" target="RYqy_tlMx3eTxnb2jSmo-4" edge="1">
          <mxGeometry relative="1" as="geometry">
            <mxPoint x="745" y="259" as="sourcePoint" />
            <mxPoint x="525" y="296" as="targetPoint" />
          </mxGeometry>
        </mxCell>
        <mxCell id="RYqy_tlMx3eTxnb2jSmo-9" value="&lt;font face=&quot;Times New Roman&quot;&gt;&lt;span style=&quot;font-size: 13px;&quot;&gt;API&lt;/span&gt;&lt;/font&gt;" style="edgeLabel;resizable=0;html=1;;align=center;verticalAlign=middle;" parent="RYqy_tlMx3eTxnb2jSmo-8" connectable="0" vertex="1">
          <mxGeometry relative="1" as="geometry" />
        </mxCell>
        <mxCell id="RYqy_tlMx3eTxnb2jSmo-22" value="&lt;font face=&quot;Times New Roman&quot;&gt;&lt;span style=&quot;font-size: 17px;&quot;&gt;PARSE DỮ LIỆU&lt;/span&gt;&lt;/font&gt;" style="rounded=0;whiteSpace=wrap;html=1;fillColor=#dae8fc;strokeColor=#6c8ebf;" parent="1" vertex="1">
          <mxGeometry x="215" y="403" width="310" height="50" as="geometry" />
        </mxCell>
        <mxCell id="RYqy_tlMx3eTxnb2jSmo-23" value="&lt;font face=&quot;Times New Roman&quot;&gt;&lt;span style=&quot;font-size: 17px;&quot;&gt;ĐỒNG BỘ JSON&lt;/span&gt;&lt;/font&gt;" style="rounded=0;whiteSpace=wrap;html=1;fillColor=#dae8fc;strokeColor=#6c8ebf;" parent="1" vertex="1">
          <mxGeometry x="645" y="403" width="310" height="50" as="geometry" />
        </mxCell>
        <mxCell id="RYqy_tlMx3eTxnb2jSmo-24" value="" style="endArrow=classic;html=1;rounded=0;exitX=0.5;exitY=1;exitDx=0;exitDy=0;entryX=0.5;entryY=0;entryDx=0;entryDy=0;" parent="1" source="RYqy_tlMx3eTxnb2jSmo-3" target="RYqy_tlMx3eTxnb2jSmo-22" edge="1">
          <mxGeometry width="50" height="50" relative="1" as="geometry">
            <mxPoint x="560" y="469" as="sourcePoint" />
            <mxPoint x="610" y="419" as="targetPoint" />
          </mxGeometry>
        </mxCell>
        <mxCell id="RYqy_tlMx3eTxnb2jSmo-25" value="" style="endArrow=classic;html=1;rounded=0;exitX=0.5;exitY=1;exitDx=0;exitDy=0;entryX=0.5;entryY=0;entryDx=0;entryDy=0;" parent="1" source="RYqy_tlMx3eTxnb2jSmo-4" target="RYqy_tlMx3eTxnb2jSmo-23" edge="1">
          <mxGeometry width="50" height="50" relative="1" as="geometry">
            <mxPoint x="550" y="359" as="sourcePoint" />
            <mxPoint x="550" y="412" as="targetPoint" />
          </mxGeometry>
        </mxCell>
        <mxCell id="RYqy_tlMx3eTxnb2jSmo-26" value="&lt;font face=&quot;Times New Roman&quot;&gt;&lt;span style=&quot;font-size: 17px;&quot;&gt;KIỂM TRA XUNG ĐỘT&lt;/span&gt;&lt;/font&gt;" style="rounded=0;whiteSpace=wrap;html=1;fillColor=#dae8fc;strokeColor=#6c8ebf;" parent="1" vertex="1">
          <mxGeometry x="434.5" y="499" width="310" height="50" as="geometry" />
        </mxCell>
        <mxCell id="RYqy_tlMx3eTxnb2jSmo-27" value="" style="endArrow=classic;html=1;rounded=0;exitX=0.5;exitY=1;exitDx=0;exitDy=0;entryX=0;entryY=0.5;entryDx=0;entryDy=0;" parent="1" source="RYqy_tlMx3eTxnb2jSmo-22" target="RYqy_tlMx3eTxnb2jSmo-26" edge="1">
          <mxGeometry width="50" height="50" relative="1" as="geometry">
            <mxPoint x="580" y="479" as="sourcePoint" />
            <mxPoint x="630" y="429" as="targetPoint" />
            <Array as="points">
              <mxPoint x="370" y="524" />
            </Array>
          </mxGeometry>
        </mxCell>
        <mxCell id="RYqy_tlMx3eTxnb2jSmo-28" value="" style="endArrow=classic;html=1;rounded=0;exitX=0.5;exitY=1;exitDx=0;exitDy=0;entryX=1;entryY=0.5;entryDx=0;entryDy=0;" parent="1" source="RYqy_tlMx3eTxnb2jSmo-23" target="RYqy_tlMx3eTxnb2jSmo-26" edge="1">
          <mxGeometry width="50" height="50" relative="1" as="geometry">
            <mxPoint x="580" y="479" as="sourcePoint" />
            <mxPoint x="630" y="429" as="targetPoint" />
            <Array as="points">
              <mxPoint x="800" y="524" />
            </Array>
          </mxGeometry>
        </mxCell>
        <mxCell id="RYqy_tlMx3eTxnb2jSmo-30" value="&lt;font face=&quot;Times New Roman&quot;&gt;&lt;span style=&quot;font-size: 17px;&quot;&gt;CẬP NHẬT CƠ SỞ DỮ LIỆU&lt;/span&gt;&lt;/font&gt;" style="rounded=0;whiteSpace=wrap;html=1;fillColor=#dae8fc;strokeColor=#6c8ebf;" parent="1" vertex="1">
          <mxGeometry x="434.5" y="599" width="310" height="50" as="geometry" />
        </mxCell>
        <mxCell id="RYqy_tlMx3eTxnb2jSmo-33" value="" style="endArrow=classic;html=1;rounded=0;exitX=0.5;exitY=1;exitDx=0;exitDy=0;" parent="1" source="RYqy_tlMx3eTxnb2jSmo-26" target="RYqy_tlMx3eTxnb2jSmo-30" edge="1">
          <mxGeometry width="50" height="50" relative="1" as="geometry">
            <mxPoint x="590" y="569" as="sourcePoint" />
            <mxPoint x="590" y="599" as="targetPoint" />
          </mxGeometry>
        </mxCell>
        <mxCell id="RYqy_tlMx3eTxnb2jSmo-34" value="&lt;font face=&quot;Times New Roman&quot;&gt;&lt;span style=&quot;font-size: 17px;&quot;&gt;THÔNG BÁO HOÀN TẤT ĐỒNG BỘ&lt;/span&gt;&lt;/font&gt;" style="rounded=0;whiteSpace=wrap;html=1;fillColor=#dae8fc;strokeColor=#6c8ebf;" parent="1" vertex="1">
          <mxGeometry x="434.5" y="699" width="310" height="50" as="geometry" />
        </mxCell>
        <mxCell id="RYqy_tlMx3eTxnb2jSmo-35" value="" style="endArrow=classic;html=1;rounded=0;entryX=0.5;entryY=0;entryDx=0;entryDy=0;" parent="1" target="RYqy_tlMx3eTxnb2jSmo-34" edge="1">
          <mxGeometry width="50" height="50" relative="1" as="geometry">
            <mxPoint x="589" y="649" as="sourcePoint" />
            <mxPoint x="589.01" y="699" as="targetPoint" />
          </mxGeometry>
        </mxCell>
        <mxCell id="V41TyKmh6_yMM9E4Bb_u-1" value="&lt;font face=&quot;Times New Roman&quot;&gt;&lt;span style=&quot;font-size: 14px;&quot;&gt;&lt;b&gt;ĐỒNG BỘ DỮ LIỆU TỪ HỆ THỐNG KHÁC&lt;/b&gt;&lt;/span&gt;&lt;/font&gt;" style="shape=umlFrame;whiteSpace=wrap;html=1;pointerEvents=0;width=320;height=40;" vertex="1" parent="1">
          <mxGeometry x="10" y="8" width="1150" height="810" as="geometry" />
        </mxCell>
      </root>
    </mxGraphModel>
  </diagram>
  <diagram id="xLUPt1OD7DRkRYZaLsll" name="FUNC-006">
    <mxGraphModel dx="2171" dy="1116" grid="1" gridSize="10" guides="1" tooltips="1" connect="1" arrows="1" fold="1" page="1" pageScale="1" pageWidth="1169" pageHeight="827" math="0" shadow="0">
      <root>
        <mxCell id="0" />
        <mxCell id="1" parent="0" />
        <mxCell id="SJjHyJfMR8OR4jyTc41l-1" value="&lt;font style=&quot;font-size: 17px;&quot; face=&quot;Times New Roman&quot;&gt;ADMIN&lt;/font&gt;" style="rounded=0;whiteSpace=wrap;html=1;fillColor=#9AC7BF;fontColor=#333333;strokeColor=#666666;" parent="1" vertex="1">
          <mxGeometry x="265.74" y="144" width="235" height="50" as="geometry" />
        </mxCell>
        <mxCell id="SJjHyJfMR8OR4jyTc41l-2" value="&lt;font face=&quot;Times New Roman&quot;&gt;&lt;span style=&quot;font-size: 17px;&quot;&gt;PHÂN QUYỀN&lt;/span&gt;&lt;/font&gt;" style="rhombus;whiteSpace=wrap;html=1;fillColor=#fff2cc;strokeColor=#d6b656;" parent="1" vertex="1">
          <mxGeometry x="271.37" y="224" width="223.75" height="114" as="geometry" />
        </mxCell>
        <mxCell id="SJjHyJfMR8OR4jyTc41l-5" value="" style="endArrow=classic;html=1;rounded=0;exitX=0.5;exitY=1;exitDx=0;exitDy=0;entryX=0.5;entryY=0;entryDx=0;entryDy=0;" parent="1" source="SJjHyJfMR8OR4jyTc41l-1" target="SJjHyJfMR8OR4jyTc41l-2" edge="1">
          <mxGeometry width="50" height="50" relative="1" as="geometry">
            <mxPoint x="358.74" y="704" as="sourcePoint" />
            <mxPoint x="408.74" y="654" as="targetPoint" />
          </mxGeometry>
        </mxCell>
        <mxCell id="SJjHyJfMR8OR4jyTc41l-10" value="&lt;font face=&quot;Times New Roman&quot;&gt;&lt;span style=&quot;font-size: 17px;&quot;&gt;YÊU CẦU CHỈNH SỬA QUA FORM&lt;/span&gt;&lt;/font&gt;" style="rounded=0;whiteSpace=wrap;html=1;fillColor=#dae8fc;strokeColor=#6c8ebf;" parent="1" vertex="1">
          <mxGeometry x="228.24" y="534" width="310" height="50" as="geometry" />
        </mxCell>
        <mxCell id="SJjHyJfMR8OR4jyTc41l-22" value="&lt;font face=&quot;Times New Roman&quot;&gt;&lt;span style=&quot;font-size: 17px;&quot;&gt;HIỂN THỊ THÔNG TIN HỌC VIÊN&lt;/span&gt;&lt;/font&gt;" style="rounded=0;whiteSpace=wrap;html=1;fillColor=#dae8fc;strokeColor=#6c8ebf;" parent="1" vertex="1">
          <mxGeometry x="170.99" y="434" width="424.51" height="50" as="geometry" />
        </mxCell>
        <mxCell id="SJjHyJfMR8OR4jyTc41l-25" value="" style="endArrow=classic;html=1;rounded=0;entryX=0.5;entryY=0;entryDx=0;entryDy=0;exitX=0.5;exitY=1;exitDx=0;exitDy=0;" parent="1" source="SJjHyJfMR8OR4jyTc41l-22" target="SJjHyJfMR8OR4jyTc41l-10" edge="1">
          <mxGeometry width="50" height="50" relative="1" as="geometry">
            <mxPoint x="423.73" y="394" as="sourcePoint" />
            <mxPoint x="423.73" y="450" as="targetPoint" />
          </mxGeometry>
        </mxCell>
        <mxCell id="SJjHyJfMR8OR4jyTc41l-26" value="&lt;font face=&quot;Times New Roman&quot;&gt;&lt;span style=&quot;font-size: 17px;&quot;&gt;HIỂN THỊ THÔNG TIN GIẢNG VIÊN&lt;/span&gt;&lt;/font&gt;" style="rounded=0;whiteSpace=wrap;html=1;fillColor=#dae8fc;strokeColor=#6c8ebf;" parent="1" vertex="1">
          <mxGeometry x="610" y="256" width="424.51" height="50" as="geometry" />
        </mxCell>
        <mxCell id="ndJXQrWNdjYFIkPPee11-1" value="" style="endArrow=classic;html=1;rounded=0;exitX=0.5;exitY=1;exitDx=0;exitDy=0;entryX=0.5;entryY=0;entryDx=0;entryDy=0;" parent="1" source="SJjHyJfMR8OR4jyTc41l-2" target="SJjHyJfMR8OR4jyTc41l-22" edge="1">
          <mxGeometry relative="1" as="geometry">
            <mxPoint x="564" y="704" as="sourcePoint" />
            <mxPoint x="400" y="759" as="targetPoint" />
          </mxGeometry>
        </mxCell>
        <mxCell id="ndJXQrWNdjYFIkPPee11-2" value="&lt;font face=&quot;Times New Roman&quot;&gt;&lt;span style=&quot;font-size: 13px;&quot;&gt;Học viên&lt;/span&gt;&lt;/font&gt;" style="edgeLabel;resizable=0;html=1;;align=center;verticalAlign=middle;" parent="ndJXQrWNdjYFIkPPee11-1" connectable="0" vertex="1">
          <mxGeometry relative="1" as="geometry" />
        </mxCell>
        <mxCell id="ndJXQrWNdjYFIkPPee11-3" value="" style="endArrow=classic;html=1;rounded=0;exitX=1;exitY=0.5;exitDx=0;exitDy=0;entryX=0;entryY=0.5;entryDx=0;entryDy=0;" parent="1" source="SJjHyJfMR8OR4jyTc41l-2" target="SJjHyJfMR8OR4jyTc41l-26" edge="1">
          <mxGeometry relative="1" as="geometry">
            <mxPoint x="644" y="324" as="sourcePoint" />
            <mxPoint x="480" y="379" as="targetPoint" />
          </mxGeometry>
        </mxCell>
        <mxCell id="ndJXQrWNdjYFIkPPee11-4" value="&lt;font face=&quot;Times New Roman&quot;&gt;&lt;span style=&quot;font-size: 13px;&quot;&gt;Giảng viên&lt;/span&gt;&lt;/font&gt;" style="edgeLabel;resizable=0;html=1;;align=center;verticalAlign=middle;" parent="ndJXQrWNdjYFIkPPee11-3" connectable="0" vertex="1">
          <mxGeometry relative="1" as="geometry" />
        </mxCell>
        <mxCell id="ndJXQrWNdjYFIkPPee11-5" value="" style="endArrow=classic;html=1;rounded=0;exitX=0.5;exitY=1;exitDx=0;exitDy=0;entryX=1;entryY=0.5;entryDx=0;entryDy=0;" parent="1" source="SJjHyJfMR8OR4jyTc41l-26" target="SJjHyJfMR8OR4jyTc41l-10" edge="1">
          <mxGeometry width="50" height="50" relative="1" as="geometry">
            <mxPoint x="560" y="384" as="sourcePoint" />
            <mxPoint x="610" y="334" as="targetPoint" />
            <Array as="points">
              <mxPoint x="822" y="559" />
            </Array>
          </mxGeometry>
        </mxCell>
        <mxCell id="ndJXQrWNdjYFIkPPee11-6" value="" style="endArrow=classic;html=1;rounded=0;exitX=0.5;exitY=1;exitDx=0;exitDy=0;entryX=0;entryY=0.5;entryDx=0;entryDy=0;" parent="1" source="SJjHyJfMR8OR4jyTc41l-10" target="ndJXQrWNdjYFIkPPee11-7" edge="1">
          <mxGeometry width="50" height="50" relative="1" as="geometry">
            <mxPoint x="560" y="574" as="sourcePoint" />
            <mxPoint x="610" y="524" as="targetPoint" />
            <Array as="points">
              <mxPoint x="383" y="659" />
            </Array>
          </mxGeometry>
        </mxCell>
        <mxCell id="ndJXQrWNdjYFIkPPee11-7" value="&lt;font face=&quot;Times New Roman&quot;&gt;&lt;span style=&quot;font-size: 17px;&quot;&gt;ADMIN DUYỆT THAY ĐỔI&lt;/span&gt;&lt;/font&gt;" style="rounded=0;whiteSpace=wrap;html=1;fillColor=#dae8fc;strokeColor=#6c8ebf;" parent="1" vertex="1">
          <mxGeometry x="538.24" y="634" width="424.51" height="50" as="geometry" />
        </mxCell>
        <mxCell id="B4mu6zxy6K1LEyb9Psxq-1" value="&lt;font style=&quot;font-size: 14px;&quot; face=&quot;Times New Roman&quot;&gt;&lt;b&gt;XEM THÔNG TIN CÁ NHÂN&lt;/b&gt;&lt;/font&gt;" style="shape=umlFrame;whiteSpace=wrap;html=1;pointerEvents=0;width=320;height=40;" vertex="1" parent="1">
          <mxGeometry x="10.000000000000014" y="9" width="1150" height="810" as="geometry" />
        </mxCell>
      </root>
    </mxGraphModel>
  </diagram>
  <diagram id="XT_35K_BtJ6wKeUXSikV" name="FUNC-007">
    <mxGraphModel dx="608" dy="312" grid="1" gridSize="10" guides="1" tooltips="1" connect="1" arrows="1" fold="1" page="1" pageScale="1" pageWidth="1169" pageHeight="827" math="0" shadow="0">
      <root>
        <mxCell id="0" />
        <mxCell id="1" parent="0" />
        <mxCell id="1r8BzTEtlvVhILl_o9a3-1" value="&lt;font face=&quot;Times New Roman&quot;&gt;&lt;span style=&quot;font-size: 17px;&quot;&gt;ĐĂNG NHẬP&lt;/span&gt;&lt;/font&gt;" style="rounded=0;whiteSpace=wrap;html=1;fillColor=#9AC7BF;fontColor=#333333;strokeColor=#666666;" parent="1" vertex="1">
          <mxGeometry x="472.01" y="180" width="235" height="50" as="geometry" />
        </mxCell>
        <mxCell id="1r8BzTEtlvVhILl_o9a3-2" value="&lt;font face=&quot;Times New Roman&quot;&gt;&lt;span style=&quot;font-size: 17px;&quot;&gt;CHẾ ĐỘ XEM&lt;/span&gt;&lt;/font&gt;" style="rhombus;whiteSpace=wrap;html=1;fillColor=#fff2cc;strokeColor=#d6b656;" parent="1" vertex="1">
          <mxGeometry x="477.64" y="280" width="223.75" height="114" as="geometry" />
        </mxCell>
        <mxCell id="1r8BzTEtlvVhILl_o9a3-3" value="&lt;font face=&quot;Times New Roman&quot;&gt;&lt;span style=&quot;font-size: 17px;&quot;&gt;HIỂN THỊ LỊCH HỌC &amp;amp; THI 7 NGÀY&lt;/span&gt;&lt;/font&gt;" style="rounded=0;whiteSpace=wrap;html=1;fillColor=#dae8fc;strokeColor=#6c8ebf;" parent="1" vertex="1">
          <mxGeometry x="215" y="454" width="310" height="50" as="geometry" />
        </mxCell>
        <mxCell id="1r8BzTEtlvVhILl_o9a3-4" value="&lt;font face=&quot;Times New Roman&quot;&gt;&lt;span style=&quot;font-size: 17px;&quot;&gt;HIỂN THỊ TOÀN BỘ HỌC KỲ&lt;/span&gt;&lt;/font&gt;" style="rounded=0;whiteSpace=wrap;html=1;fillColor=#dae8fc;strokeColor=#6c8ebf;" parent="1" vertex="1">
          <mxGeometry x="645" y="454" width="310" height="50" as="geometry" />
        </mxCell>
        <mxCell id="1r8BzTEtlvVhILl_o9a3-5" value="" style="endArrow=classic;html=1;rounded=0;exitX=0.5;exitY=1;exitDx=0;exitDy=0;entryX=0.5;entryY=0;entryDx=0;entryDy=0;" parent="1" source="1r8BzTEtlvVhILl_o9a3-1" target="1r8BzTEtlvVhILl_o9a3-2" edge="1">
          <mxGeometry width="50" height="50" relative="1" as="geometry">
            <mxPoint x="565" y="793" as="sourcePoint" />
            <mxPoint x="615" y="743" as="targetPoint" />
          </mxGeometry>
        </mxCell>
        <mxCell id="1r8BzTEtlvVhILl_o9a3-6" value="" style="endArrow=classic;html=1;rounded=0;exitX=0;exitY=1;exitDx=0;exitDy=0;entryX=0.5;entryY=0;entryDx=0;entryDy=0;" parent="1" source="1r8BzTEtlvVhILl_o9a3-2" target="1r8BzTEtlvVhILl_o9a3-3" edge="1">
          <mxGeometry relative="1" as="geometry">
            <mxPoint x="672" y="293" as="sourcePoint" />
            <mxPoint x="495" y="338" as="targetPoint" />
          </mxGeometry>
        </mxCell>
        <mxCell id="1r8BzTEtlvVhILl_o9a3-7" value="&lt;font face=&quot;Times New Roman&quot;&gt;&lt;span style=&quot;font-size: 13px;&quot;&gt;Theo tuần&lt;/span&gt;&lt;/font&gt;" style="edgeLabel;resizable=0;html=1;;align=center;verticalAlign=middle;" parent="1r8BzTEtlvVhILl_o9a3-6" connectable="0" vertex="1">
          <mxGeometry relative="1" as="geometry" />
        </mxCell>
        <mxCell id="1r8BzTEtlvVhILl_o9a3-8" value="" style="endArrow=classic;html=1;rounded=0;exitX=1;exitY=1;exitDx=0;exitDy=0;entryX=0.5;entryY=0;entryDx=0;entryDy=0;" parent="1" source="1r8BzTEtlvVhILl_o9a3-2" target="1r8BzTEtlvVhILl_o9a3-4" edge="1">
          <mxGeometry relative="1" as="geometry">
            <mxPoint x="745" y="413" as="sourcePoint" />
            <mxPoint x="525" y="450" as="targetPoint" />
          </mxGeometry>
        </mxCell>
        <mxCell id="1r8BzTEtlvVhILl_o9a3-9" value="&lt;font face=&quot;Times New Roman&quot;&gt;&lt;span style=&quot;font-size: 13px;&quot;&gt;Theo học kỳ&lt;/span&gt;&lt;/font&gt;" style="edgeLabel;resizable=0;html=1;;align=center;verticalAlign=middle;" parent="1r8BzTEtlvVhILl_o9a3-8" connectable="0" vertex="1">
          <mxGeometry relative="1" as="geometry" />
        </mxCell>
        <mxCell id="1r8BzTEtlvVhILl_o9a3-14" value="&lt;font face=&quot;Times New Roman&quot;&gt;&lt;span style=&quot;font-size: 17px;&quot;&gt;XUẤT LỊCH HỌC DẠNG PDF&lt;/span&gt;&lt;/font&gt;" style="rounded=0;whiteSpace=wrap;html=1;fillColor=#dae8fc;strokeColor=#6c8ebf;" parent="1" vertex="1">
          <mxGeometry x="430" y="580" width="310" height="50" as="geometry" />
        </mxCell>
        <mxCell id="1r8BzTEtlvVhILl_o9a3-22" value="" style="endArrow=classic;html=1;rounded=0;exitX=0.25;exitY=1;exitDx=0;exitDy=0;entryX=0;entryY=0.5;entryDx=0;entryDy=0;" parent="1" source="1r8BzTEtlvVhILl_o9a3-3" target="1r8BzTEtlvVhILl_o9a3-14" edge="1">
          <mxGeometry width="50" height="50" relative="1" as="geometry">
            <mxPoint x="800" y="734" as="sourcePoint" />
            <mxPoint x="850" y="684" as="targetPoint" />
            <Array as="points">
              <mxPoint x="360" y="554" />
            </Array>
          </mxGeometry>
        </mxCell>
        <mxCell id="1r8BzTEtlvVhILl_o9a3-23" value="" style="endArrow=classic;html=1;rounded=0;exitX=0.75;exitY=1;exitDx=0;exitDy=0;entryX=1;entryY=0.5;entryDx=0;entryDy=0;" parent="1" source="1r8BzTEtlvVhILl_o9a3-4" target="1r8BzTEtlvVhILl_o9a3-14" edge="1">
          <mxGeometry width="50" height="50" relative="1" as="geometry">
            <mxPoint x="800" y="734" as="sourcePoint" />
            <mxPoint x="850" y="684" as="targetPoint" />
            <Array as="points">
              <mxPoint x="810" y="554" />
            </Array>
          </mxGeometry>
        </mxCell>
        <mxCell id="QkC8CE4Qqc2kYS-nGpF7-1" value="&lt;font style=&quot;font-size: 14px;&quot; face=&quot;Times New Roman&quot;&gt;&lt;b&gt;XEM THỜI KHOÁ BIỂU&lt;/b&gt;&lt;/font&gt;" style="shape=umlFrame;whiteSpace=wrap;html=1;pointerEvents=0;width=320;height=40;" vertex="1" parent="1">
          <mxGeometry x="9" y="9" width="1150" height="810" as="geometry" />
        </mxCell>
      </root>
    </mxGraphModel>
  </diagram>
  <diagram id="K8GFmvFYU-jrh_neZQUq" name="FUNC-008">
    <mxGraphModel dx="1267" dy="651" grid="1" gridSize="10" guides="1" tooltips="1" connect="1" arrows="1" fold="1" page="1" pageScale="1" pageWidth="1169" pageHeight="827" math="0" shadow="0">
      <root>
        <mxCell id="0" />
        <mxCell id="1" parent="0" />
        <mxCell id="odioJXHOZZWeXFBrBncr-1" value="&lt;font face=&quot;Times New Roman&quot;&gt;&lt;span style=&quot;font-size: 17px;&quot;&gt;HỌC VIÊN&lt;/span&gt;&lt;/font&gt;" style="rounded=0;whiteSpace=wrap;html=1;fillColor=#9AC7BF;fontColor=#333333;strokeColor=#666666;" parent="1" vertex="1">
          <mxGeometry x="472.01" y="20" width="235" height="50" as="geometry" />
        </mxCell>
        <mxCell id="odioJXHOZZWeXFBrBncr-2" value="&lt;font face=&quot;Times New Roman&quot;&gt;&lt;span style=&quot;font-size: 17px;&quot;&gt;KIỂM TRA ĐIỀU KIỆN&lt;/span&gt;&lt;/font&gt;" style="rhombus;whiteSpace=wrap;html=1;fillColor=#fff2cc;strokeColor=#d6b656;" parent="1" vertex="1">
          <mxGeometry x="477.64" y="210" width="223.75" height="114" as="geometry" />
        </mxCell>
        <mxCell id="odioJXHOZZWeXFBrBncr-3" value="&lt;font face=&quot;Times New Roman&quot;&gt;&lt;span style=&quot;font-size: 17px;&quot;&gt;XÁC NHẬN ĐĂNG KÝ&lt;/span&gt;&lt;/font&gt;" style="rounded=0;whiteSpace=wrap;html=1;fillColor=#d5e8d4;strokeColor=#82b366;" parent="1" vertex="1">
          <mxGeometry x="119.99999999999999" y="350" width="310" height="50" as="geometry" />
        </mxCell>
        <mxCell id="odioJXHOZZWeXFBrBncr-5" value="" style="endArrow=classic;html=1;rounded=0;entryX=0.5;entryY=0;entryDx=0;entryDy=0;exitX=0.5;exitY=1;exitDx=0;exitDy=0;" parent="1" source="odioJXHOZZWeXFBrBncr-14" target="odioJXHOZZWeXFBrBncr-2" edge="1">
          <mxGeometry width="50" height="50" relative="1" as="geometry">
            <mxPoint x="555" y="280" as="sourcePoint" />
            <mxPoint x="600" y="773" as="targetPoint" />
          </mxGeometry>
        </mxCell>
        <mxCell id="odioJXHOZZWeXFBrBncr-6" value="" style="endArrow=classic;html=1;rounded=0;exitX=0;exitY=0.5;exitDx=0;exitDy=0;entryX=0.5;entryY=0;entryDx=0;entryDy=0;" parent="1" source="odioJXHOZZWeXFBrBncr-2" target="odioJXHOZZWeXFBrBncr-3" edge="1">
          <mxGeometry relative="1" as="geometry">
            <mxPoint x="657" y="323" as="sourcePoint" />
            <mxPoint x="480" y="368" as="targetPoint" />
            <Array as="points">
              <mxPoint x="275" y="267" />
            </Array>
          </mxGeometry>
        </mxCell>
        <mxCell id="odioJXHOZZWeXFBrBncr-7" value="&lt;font face=&quot;Times New Roman&quot;&gt;&lt;span style=&quot;font-size: 13px;&quot;&gt;Đủ điều kiện đăng ký&lt;/span&gt;&lt;/font&gt;" style="edgeLabel;resizable=0;html=1;;align=center;verticalAlign=middle;" parent="odioJXHOZZWeXFBrBncr-6" connectable="0" vertex="1">
          <mxGeometry relative="1" as="geometry" />
        </mxCell>
        <mxCell id="odioJXHOZZWeXFBrBncr-14" value="&lt;font face=&quot;Times New Roman&quot;&gt;&lt;span style=&quot;font-size: 17px;&quot;&gt;CHỌN HỌC PHẦN&lt;/span&gt;&lt;/font&gt;" style="rounded=0;whiteSpace=wrap;html=1;fillColor=#dae8fc;strokeColor=#6c8ebf;" parent="1" vertex="1">
          <mxGeometry x="434.51" y="120" width="310" height="50" as="geometry" />
        </mxCell>
        <mxCell id="odioJXHOZZWeXFBrBncr-15" value="" style="endArrow=classic;html=1;rounded=0;exitX=0.5;exitY=1;exitDx=0;exitDy=0;entryX=0.5;entryY=0;entryDx=0;entryDy=0;" parent="1" source="odioJXHOZZWeXFBrBncr-1" target="odioJXHOZZWeXFBrBncr-14" edge="1">
          <mxGeometry width="50" height="50" relative="1" as="geometry">
            <mxPoint x="580" y="410" as="sourcePoint" />
            <mxPoint x="630" y="360" as="targetPoint" />
          </mxGeometry>
        </mxCell>
        <mxCell id="odioJXHOZZWeXFBrBncr-16" value="&lt;font face=&quot;Times New Roman&quot;&gt;&lt;span style=&quot;font-size: 17px;&quot;&gt;THÔNG BÁO ĐIỀU KIỆN CẦN CÓ&lt;/span&gt;&lt;/font&gt;" style="rounded=0;whiteSpace=wrap;html=1;fillColor=#f8cecc;strokeColor=#b85450;" parent="1" vertex="1">
          <mxGeometry x="512" y="400" width="310" height="50" as="geometry" />
        </mxCell>
        <mxCell id="odioJXHOZZWeXFBrBncr-17" value="" style="endArrow=classic;html=1;rounded=0;exitX=0.5;exitY=1;exitDx=0;exitDy=0;entryX=0.25;entryY=0;entryDx=0;entryDy=0;" parent="1" source="odioJXHOZZWeXFBrBncr-2" target="odioJXHOZZWeXFBrBncr-16" edge="1">
          <mxGeometry relative="1" as="geometry">
            <mxPoint x="996.36" y="500" as="sourcePoint" />
            <mxPoint x="942.36" y="572" as="targetPoint" />
          </mxGeometry>
        </mxCell>
        <mxCell id="odioJXHOZZWeXFBrBncr-18" value="&lt;font face=&quot;Times New Roman&quot;&gt;&lt;span style=&quot;font-size: 13px;&quot;&gt;Không đủ điều kiện tiên quyết&lt;/span&gt;&lt;/font&gt;" style="edgeLabel;resizable=0;html=1;;align=center;verticalAlign=middle;" parent="odioJXHOZZWeXFBrBncr-17" connectable="0" vertex="1">
          <mxGeometry relative="1" as="geometry" />
        </mxCell>
        <mxCell id="odioJXHOZZWeXFBrBncr-21" value="" style="endArrow=classic;html=1;rounded=0;exitX=0.5;exitY=1;exitDx=0;exitDy=0;entryX=0.5;entryY=0;entryDx=0;entryDy=0;" parent="1" source="odioJXHOZZWeXFBrBncr-3" target="odioJXHOZZWeXFBrBncr-22" edge="1">
          <mxGeometry width="50" height="50" relative="1" as="geometry">
            <mxPoint x="440" y="430" as="sourcePoint" />
            <mxPoint x="275" y="460" as="targetPoint" />
          </mxGeometry>
        </mxCell>
        <mxCell id="odioJXHOZZWeXFBrBncr-22" value="&lt;font face=&quot;Times New Roman&quot;&gt;&lt;span style=&quot;font-size: 17px;&quot;&gt;KIỂM TRA HỌC PHÍ&lt;br&gt;SAU 7 NGÀY&lt;/span&gt;&lt;/font&gt;" style="rhombus;whiteSpace=wrap;html=1;fillColor=#fff2cc;strokeColor=#d6b656;" parent="1" vertex="1">
          <mxGeometry x="163.13" y="460" width="223.75" height="114" as="geometry" />
        </mxCell>
        <mxCell id="odioJXHOZZWeXFBrBncr-23" value="&lt;font face=&quot;Times New Roman&quot;&gt;&lt;span style=&quot;font-size: 17px;&quot;&gt;HUỶ HỌC PHẦN ĐĂNG KÝ&lt;/span&gt;&lt;/font&gt;" style="rounded=0;whiteSpace=wrap;html=1;fillColor=#f8cecc;strokeColor=#b85450;" parent="1" vertex="1">
          <mxGeometry x="512" y="492" width="310" height="50" as="geometry" />
        </mxCell>
        <mxCell id="odioJXHOZZWeXFBrBncr-26" value="" style="endArrow=classic;html=1;rounded=0;exitX=1;exitY=0.5;exitDx=0;exitDy=0;entryX=0;entryY=0.5;entryDx=0;entryDy=0;" parent="1" source="odioJXHOZZWeXFBrBncr-22" target="odioJXHOZZWeXFBrBncr-23" edge="1">
          <mxGeometry relative="1" as="geometry">
            <mxPoint x="580" y="370" as="sourcePoint" />
            <mxPoint x="580" y="446" as="targetPoint" />
          </mxGeometry>
        </mxCell>
        <mxCell id="odioJXHOZZWeXFBrBncr-27" value="&lt;font face=&quot;Times New Roman&quot;&gt;&lt;span style=&quot;font-size: 13px;&quot;&gt;Không đóng&lt;/span&gt;&lt;/font&gt;" style="edgeLabel;resizable=0;html=1;;align=center;verticalAlign=middle;" parent="odioJXHOZZWeXFBrBncr-26" connectable="0" vertex="1">
          <mxGeometry relative="1" as="geometry" />
        </mxCell>
        <mxCell id="odioJXHOZZWeXFBrBncr-28" value="&lt;font face=&quot;Times New Roman&quot;&gt;&lt;span style=&quot;font-size: 17px;&quot;&gt;HOÀN TẤT ĐĂNG KÝ&lt;br&gt;ĐỒNG BỘ DỮ LIỆU&lt;/span&gt;&lt;/font&gt;" style="rounded=0;whiteSpace=wrap;html=1;fillColor=#d5e8d4;strokeColor=#82b366;" parent="1" vertex="1">
          <mxGeometry x="119.99999999999999" y="650" width="310" height="50" as="geometry" />
        </mxCell>
        <mxCell id="odioJXHOZZWeXFBrBncr-29" value="" style="endArrow=classic;html=1;rounded=0;entryX=0.5;entryY=0;entryDx=0;entryDy=0;exitX=0.5;exitY=1;exitDx=0;exitDy=0;" parent="1" source="odioJXHOZZWeXFBrBncr-22" target="odioJXHOZZWeXFBrBncr-28" edge="1">
          <mxGeometry relative="1" as="geometry">
            <mxPoint x="360" y="590" as="sourcePoint" />
            <mxPoint x="270" y="586" as="targetPoint" />
          </mxGeometry>
        </mxCell>
        <mxCell id="odioJXHOZZWeXFBrBncr-30" value="&lt;font face=&quot;Times New Roman&quot;&gt;&lt;span style=&quot;font-size: 13px;&quot;&gt;Hoàn tất học phí&lt;/span&gt;&lt;/font&gt;" style="edgeLabel;resizable=0;html=1;;align=center;verticalAlign=middle;" parent="odioJXHOZZWeXFBrBncr-29" connectable="0" vertex="1">
          <mxGeometry relative="1" as="geometry" />
        </mxCell>
        <mxCell id="FJac_YqeNv45Ey2LTZ-p-1" value="&lt;font face=&quot;Times New Roman&quot;&gt;&lt;span style=&quot;font-size: 14px;&quot;&gt;&lt;b&gt;ĐĂNG KÝ HỌC PHẦN&lt;/b&gt;&lt;/span&gt;&lt;/font&gt;" style="shape=umlFrame;whiteSpace=wrap;html=1;pointerEvents=0;width=320;height=40;" vertex="1" parent="1">
          <mxGeometry x="9" y="9" width="1150" height="810" as="geometry" />
        </mxCell>
      </root>
    </mxGraphModel>
  </diagram>
  <diagram id="1eCmN2NMbGVeyWskjyhS" name="FUNC-009">
    <mxGraphModel dx="3040" dy="1562" grid="1" gridSize="10" guides="1" tooltips="1" connect="1" arrows="1" fold="1" page="1" pageScale="1" pageWidth="1169" pageHeight="827" math="0" shadow="0">
      <root>
        <mxCell id="0" />
        <mxCell id="1" parent="0" />
        <mxCell id="9sNfHzVqVmdNg3LWcAC5-1" value="&lt;font face=&quot;Times New Roman&quot;&gt;&lt;span style=&quot;font-size: 17px;&quot;&gt;HỌC VIÊN&lt;/span&gt;&lt;/font&gt;" style="rounded=0;whiteSpace=wrap;html=1;fillColor=#9AC7BF;fontColor=#333333;strokeColor=#666666;" parent="1" vertex="1">
          <mxGeometry x="466.5" y="239" width="235" height="50" as="geometry" />
        </mxCell>
        <mxCell id="9sNfHzVqVmdNg3LWcAC5-7" value="&lt;font face=&quot;Times New Roman&quot;&gt;&lt;span style=&quot;font-size: 17px;&quot;&gt;CHỌN HỌC KỲ&lt;/span&gt;&lt;/font&gt;" style="rounded=0;whiteSpace=wrap;html=1;fillColor=#dae8fc;strokeColor=#6c8ebf;" parent="1" vertex="1">
          <mxGeometry x="429" y="339" width="310" height="50" as="geometry" />
        </mxCell>
        <mxCell id="9sNfHzVqVmdNg3LWcAC5-8" value="" style="endArrow=classic;html=1;rounded=0;exitX=0.5;exitY=1;exitDx=0;exitDy=0;entryX=0.5;entryY=0;entryDx=0;entryDy=0;" parent="1" source="9sNfHzVqVmdNg3LWcAC5-1" target="9sNfHzVqVmdNg3LWcAC5-7" edge="1">
          <mxGeometry width="50" height="50" relative="1" as="geometry">
            <mxPoint x="574.49" y="629" as="sourcePoint" />
            <mxPoint x="624.49" y="579" as="targetPoint" />
          </mxGeometry>
        </mxCell>
        <mxCell id="9sNfHzVqVmdNg3LWcAC5-20" value="&lt;font face=&quot;Times New Roman&quot;&gt;&lt;span style=&quot;font-size: 17px;&quot;&gt;HIỂN THỊ BẢNG ĐIỂM &amp;amp; GPA&lt;/span&gt;&lt;/font&gt;" style="rounded=0;whiteSpace=wrap;html=1;fillColor=#dae8fc;strokeColor=#6c8ebf;" parent="1" vertex="1">
          <mxGeometry x="430" y="439" width="310" height="50" as="geometry" />
        </mxCell>
        <mxCell id="9sNfHzVqVmdNg3LWcAC5-21" value="&lt;font face=&quot;Times New Roman&quot;&gt;&lt;span style=&quot;font-size: 17px;&quot;&gt;XUẤT BẢN ĐIỂM DẠNG PDF&lt;/span&gt;&lt;/font&gt;" style="rounded=0;whiteSpace=wrap;html=1;fillColor=#dae8fc;strokeColor=#6c8ebf;" parent="1" vertex="1">
          <mxGeometry x="430" y="539" width="310" height="50" as="geometry" />
        </mxCell>
        <mxCell id="9sNfHzVqVmdNg3LWcAC5-22" value="" style="endArrow=classic;html=1;rounded=0;exitX=0.5;exitY=1;exitDx=0;exitDy=0;entryX=0.5;entryY=0;entryDx=0;entryDy=0;" parent="1" source="9sNfHzVqVmdNg3LWcAC5-7" target="9sNfHzVqVmdNg3LWcAC5-20" edge="1">
          <mxGeometry width="50" height="50" relative="1" as="geometry">
            <mxPoint x="580" y="330" as="sourcePoint" />
            <mxPoint x="580" y="380" as="targetPoint" />
          </mxGeometry>
        </mxCell>
        <mxCell id="9sNfHzVqVmdNg3LWcAC5-24" value="" style="endArrow=classic;html=1;rounded=0;exitX=0.5;exitY=1;exitDx=0;exitDy=0;entryX=0.5;entryY=0;entryDx=0;entryDy=0;" parent="1" source="9sNfHzVqVmdNg3LWcAC5-20" target="9sNfHzVqVmdNg3LWcAC5-21" edge="1">
          <mxGeometry width="50" height="50" relative="1" as="geometry">
            <mxPoint x="620" y="410" as="sourcePoint" />
            <mxPoint x="620" y="460" as="targetPoint" />
          </mxGeometry>
        </mxCell>
        <mxCell id="1VEC0ERAju1DuJvxrRCb-1" value="&lt;font style=&quot;font-size: 14px;&quot; face=&quot;Times New Roman&quot;&gt;&lt;b&gt;XEM ĐIỂM (HỌC VIÊN)&lt;/b&gt;&lt;/font&gt;" style="shape=umlFrame;whiteSpace=wrap;html=1;pointerEvents=0;width=320;height=40;" vertex="1" parent="1">
          <mxGeometry x="9" y="9" width="1150" height="810" as="geometry" />
        </mxCell>
      </root>
    </mxGraphModel>
  </diagram>
  <diagram id="i2P8r1Wpahq0dRTVdGHT" name="FUNC-010">
    <mxGraphModel dx="1689" dy="868" grid="1" gridSize="10" guides="1" tooltips="1" connect="1" arrows="1" fold="1" page="1" pageScale="1" pageWidth="1169" pageHeight="827" math="0" shadow="0">
      <root>
        <mxCell id="0" />
        <mxCell id="1" parent="0" />
        <mxCell id="SrrYmFBWhFntWGXfLsiT-1" value="&lt;font face=&quot;Times New Roman&quot;&gt;&lt;span style=&quot;font-size: 17px;&quot;&gt;GIẢNG VIÊN&lt;/span&gt;&lt;/font&gt;" style="rounded=0;whiteSpace=wrap;html=1;fillColor=#9AC7BF;fontColor=#333333;strokeColor=#666666;" vertex="1" parent="1">
          <mxGeometry x="472.01" y="100" width="235" height="50" as="geometry" />
        </mxCell>
        <mxCell id="SrrYmFBWhFntWGXfLsiT-2" value="&lt;font face=&quot;Times New Roman&quot;&gt;&lt;span style=&quot;font-size: 17px;&quot;&gt;CHỌN CHỨC NĂNG&lt;/span&gt;&lt;/font&gt;" style="rhombus;whiteSpace=wrap;html=1;fillColor=#fff2cc;strokeColor=#d6b656;" vertex="1" parent="1">
          <mxGeometry x="477.64" y="200" width="223.75" height="114" as="geometry" />
        </mxCell>
        <mxCell id="SrrYmFBWhFntWGXfLsiT-3" value="&lt;font face=&quot;Times New Roman&quot;&gt;&lt;span style=&quot;font-size: 17px;&quot;&gt;GHI NHẬP VẮNG&lt;/span&gt;&lt;/font&gt;" style="rounded=0;whiteSpace=wrap;html=1;fillColor=#dae8fc;strokeColor=#6c8ebf;" vertex="1" parent="1">
          <mxGeometry x="215" y="374" width="310" height="50" as="geometry" />
        </mxCell>
        <mxCell id="SrrYmFBWhFntWGXfLsiT-4" value="&lt;font face=&quot;Times New Roman&quot;&gt;&lt;span style=&quot;font-size: 17px;&quot;&gt;HIỂN THỊ TOÀN BỘ HỌC KỲ&lt;/span&gt;&lt;/font&gt;" style="rounded=0;whiteSpace=wrap;html=1;fillColor=#dae8fc;strokeColor=#6c8ebf;" vertex="1" parent="1">
          <mxGeometry x="645" y="374" width="310" height="50" as="geometry" />
        </mxCell>
        <mxCell id="SrrYmFBWhFntWGXfLsiT-5" value="" style="endArrow=classic;html=1;rounded=0;exitX=0.5;exitY=1;exitDx=0;exitDy=0;entryX=0.5;entryY=0;entryDx=0;entryDy=0;" edge="1" parent="1" source="SrrYmFBWhFntWGXfLsiT-1" target="SrrYmFBWhFntWGXfLsiT-2">
          <mxGeometry width="50" height="50" relative="1" as="geometry">
            <mxPoint x="565" y="713" as="sourcePoint" />
            <mxPoint x="615" y="663" as="targetPoint" />
          </mxGeometry>
        </mxCell>
        <mxCell id="SrrYmFBWhFntWGXfLsiT-6" value="" style="endArrow=classic;html=1;rounded=0;exitX=0;exitY=1;exitDx=0;exitDy=0;entryX=0.5;entryY=0;entryDx=0;entryDy=0;" edge="1" parent="1" source="SrrYmFBWhFntWGXfLsiT-2" target="SrrYmFBWhFntWGXfLsiT-3">
          <mxGeometry relative="1" as="geometry">
            <mxPoint x="672" y="213" as="sourcePoint" />
            <mxPoint x="495" y="258" as="targetPoint" />
          </mxGeometry>
        </mxCell>
        <mxCell id="SrrYmFBWhFntWGXfLsiT-7" value="&lt;font face=&quot;Times New Roman&quot;&gt;&lt;span style=&quot;font-size: 13px;&quot;&gt;Điểm danh&lt;/span&gt;&lt;/font&gt;" style="edgeLabel;resizable=0;html=1;;align=center;verticalAlign=middle;" connectable="0" vertex="1" parent="SrrYmFBWhFntWGXfLsiT-6">
          <mxGeometry relative="1" as="geometry" />
        </mxCell>
        <mxCell id="SrrYmFBWhFntWGXfLsiT-8" value="" style="endArrow=classic;html=1;rounded=0;exitX=1;exitY=1;exitDx=0;exitDy=0;entryX=0.5;entryY=0;entryDx=0;entryDy=0;" edge="1" parent="1" source="SrrYmFBWhFntWGXfLsiT-2" target="SrrYmFBWhFntWGXfLsiT-4">
          <mxGeometry relative="1" as="geometry">
            <mxPoint x="745" y="333" as="sourcePoint" />
            <mxPoint x="525" y="370" as="targetPoint" />
          </mxGeometry>
        </mxCell>
        <mxCell id="SrrYmFBWhFntWGXfLsiT-9" value="&lt;font face=&quot;Times New Roman&quot;&gt;&lt;span style=&quot;font-size: 13px;&quot;&gt;Nhập điểm&lt;/span&gt;&lt;/font&gt;" style="edgeLabel;resizable=0;html=1;;align=center;verticalAlign=middle;" connectable="0" vertex="1" parent="SrrYmFBWhFntWGXfLsiT-8">
          <mxGeometry relative="1" as="geometry" />
        </mxCell>
        <mxCell id="SrrYmFBWhFntWGXfLsiT-13" value="&lt;font face=&quot;Times New Roman&quot;&gt;&lt;span style=&quot;font-size: 17px;&quot;&gt;CẢNH CÁO HỌC VỤ&lt;br&gt;KHI VẮNG QUÁ 3 BUỔI&lt;/span&gt;&lt;/font&gt;" style="rounded=0;whiteSpace=wrap;html=1;fillColor=#dae8fc;strokeColor=#6c8ebf;" vertex="1" parent="1">
          <mxGeometry x="215" y="460" width="310" height="50" as="geometry" />
        </mxCell>
        <mxCell id="SrrYmFBWhFntWGXfLsiT-14" value="&lt;font face=&quot;Times New Roman&quot;&gt;&lt;span style=&quot;font-size: 17px;&quot;&gt;NHẬP ĐIỂM THÀNH PHẦN&lt;/span&gt;&lt;/font&gt;" style="rounded=0;whiteSpace=wrap;html=1;fillColor=#dae8fc;strokeColor=#6c8ebf;" vertex="1" parent="1">
          <mxGeometry x="645" y="460" width="310" height="50" as="geometry" />
        </mxCell>
        <mxCell id="SrrYmFBWhFntWGXfLsiT-15" value="&lt;font face=&quot;Times New Roman&quot;&gt;&lt;span style=&quot;font-size: 17px;&quot;&gt;TÍNH ĐIỂM TỔNG KẾT&lt;/span&gt;&lt;/font&gt;" style="rounded=0;whiteSpace=wrap;html=1;fillColor=#dae8fc;strokeColor=#6c8ebf;" vertex="1" parent="1">
          <mxGeometry x="645" y="546" width="310" height="50" as="geometry" />
        </mxCell>
        <mxCell id="SrrYmFBWhFntWGXfLsiT-16" value="&lt;font face=&quot;Times New Roman&quot;&gt;&lt;span style=&quot;font-size: 17px;&quot;&gt;KHOÁ ĐIỂM SAU THỜI HẠN&lt;/span&gt;&lt;/font&gt;" style="rounded=0;whiteSpace=wrap;html=1;fillColor=#dae8fc;strokeColor=#6c8ebf;" vertex="1" parent="1">
          <mxGeometry x="645" y="633" width="310" height="50" as="geometry" />
        </mxCell>
        <mxCell id="SrrYmFBWhFntWGXfLsiT-17" value="" style="endArrow=classic;html=1;rounded=0;exitX=0.5;exitY=1;exitDx=0;exitDy=0;entryX=0.5;entryY=0;entryDx=0;entryDy=0;" edge="1" parent="1" source="SrrYmFBWhFntWGXfLsiT-3" target="SrrYmFBWhFntWGXfLsiT-13">
          <mxGeometry width="50" height="50" relative="1" as="geometry">
            <mxPoint x="650" y="440" as="sourcePoint" />
            <mxPoint x="700" y="390" as="targetPoint" />
          </mxGeometry>
        </mxCell>
        <mxCell id="SrrYmFBWhFntWGXfLsiT-19" value="" style="endArrow=classic;html=1;rounded=0;exitX=0.155;exitY=0.991;exitDx=0;exitDy=0;exitPerimeter=0;entryX=0.154;entryY=-0.009;entryDx=0;entryDy=0;entryPerimeter=0;" edge="1" parent="1" source="SrrYmFBWhFntWGXfLsiT-4" target="SrrYmFBWhFntWGXfLsiT-14">
          <mxGeometry width="50" height="50" relative="1" as="geometry">
            <mxPoint x="650" y="440" as="sourcePoint" />
            <mxPoint x="700" y="390" as="targetPoint" />
          </mxGeometry>
        </mxCell>
        <mxCell id="SrrYmFBWhFntWGXfLsiT-20" value="" style="endArrow=classic;html=1;rounded=0;exitX=0.155;exitY=0.991;exitDx=0;exitDy=0;exitPerimeter=0;entryX=0.154;entryY=-0.009;entryDx=0;entryDy=0;entryPerimeter=0;" edge="1" parent="1">
          <mxGeometry width="50" height="50" relative="1" as="geometry">
            <mxPoint x="740" y="510" as="sourcePoint" />
            <mxPoint x="740" y="546" as="targetPoint" />
          </mxGeometry>
        </mxCell>
        <mxCell id="SrrYmFBWhFntWGXfLsiT-21" value="" style="endArrow=classic;html=1;rounded=0;exitX=0.155;exitY=0.991;exitDx=0;exitDy=0;exitPerimeter=0;entryX=0.154;entryY=-0.009;entryDx=0;entryDy=0;entryPerimeter=0;" edge="1" parent="1">
          <mxGeometry width="50" height="50" relative="1" as="geometry">
            <mxPoint x="799.8" y="596" as="sourcePoint" />
            <mxPoint x="799.8" y="632" as="targetPoint" />
          </mxGeometry>
        </mxCell>
        <mxCell id="Bk0ZVMZbFBXEOdnejUbd-1" value="&lt;font style=&quot;font-size: 14px;&quot; face=&quot;Times New Roman&quot;&gt;&lt;b&gt;QUẢN LÝ LỚP HỌC PHẦN&lt;/b&gt;&lt;/font&gt;" style="shape=umlFrame;whiteSpace=wrap;html=1;pointerEvents=0;width=320;height=40;" vertex="1" parent="1">
          <mxGeometry x="10" y="9" width="1150" height="810" as="geometry" />
        </mxCell>
      </root>
    </mxGraphModel>
  </diagram>
  <diagram id="_2bV59B2I8pkAgRaoYuK" name="FUNC-011">
    <mxGraphModel dx="844" dy="434" grid="1" gridSize="10" guides="1" tooltips="1" connect="1" arrows="1" fold="1" page="1" pageScale="1" pageWidth="1169" pageHeight="827" math="0" shadow="0">
      <root>
        <mxCell id="0" />
        <mxCell id="1" parent="0" />
        <mxCell id="WtTW-PMpdfPZUwneUC1K-1" value="&lt;font face=&quot;Times New Roman&quot;&gt;&lt;span style=&quot;font-size: 17px;&quot;&gt;GIẢNG VIÊN&lt;/span&gt;&lt;/font&gt;" style="rounded=0;whiteSpace=wrap;html=1;fillColor=#9AC7BF;fontColor=#333333;strokeColor=#666666;" parent="1" vertex="1">
          <mxGeometry x="467" y="54" width="235" height="50" as="geometry" />
        </mxCell>
        <mxCell id="fkcTVNicVJGHUa3fR3Ig-1" value="&lt;font face=&quot;Times New Roman&quot;&gt;&lt;span style=&quot;font-size: 17px;&quot;&gt;CHỌN HỌC PHẦN ĐƯỢC PHÂN CÔNG&lt;/span&gt;&lt;/font&gt;" style="rounded=0;whiteSpace=wrap;html=1;fillColor=#dae8fc;strokeColor=#6c8ebf;" parent="1" vertex="1">
          <mxGeometry x="430" y="154" width="310" height="50" as="geometry" />
        </mxCell>
        <mxCell id="fkcTVNicVJGHUa3fR3Ig-2" value="&lt;font face=&quot;Times New Roman&quot;&gt;&lt;span style=&quot;font-size: 17px;&quot;&gt;HIỂN THỊ KHUNG GIỜ + PHÒNG DẠY&lt;/span&gt;&lt;/font&gt;" style="rounded=0;whiteSpace=wrap;html=1;fillColor=#dae8fc;strokeColor=#6c8ebf;" parent="1" vertex="1">
          <mxGeometry x="430" y="244" width="310" height="50" as="geometry" />
        </mxCell>
        <mxCell id="fkcTVNicVJGHUa3fR3Ig-3" value="&lt;font face=&quot;Times New Roman&quot;&gt;&lt;span style=&quot;font-size: 17px;&quot;&gt;CHỌN KHUNG GIỜ + PHÒNG&lt;/span&gt;&lt;/font&gt;" style="rounded=0;whiteSpace=wrap;html=1;fillColor=#dae8fc;strokeColor=#6c8ebf;" parent="1" vertex="1">
          <mxGeometry x="430" y="334" width="310" height="50" as="geometry" />
        </mxCell>
        <mxCell id="fkcTVNicVJGHUa3fR3Ig-4" value="" style="endArrow=classic;html=1;rounded=0;exitX=0.5;exitY=1;exitDx=0;exitDy=0;entryX=0.5;entryY=0;entryDx=0;entryDy=0;" parent="1" source="fkcTVNicVJGHUa3fR3Ig-1" target="fkcTVNicVJGHUa3fR3Ig-2" edge="1">
          <mxGeometry width="50" height="50" relative="1" as="geometry">
            <mxPoint x="580" y="135" as="sourcePoint" />
            <mxPoint x="580" y="185" as="targetPoint" />
          </mxGeometry>
        </mxCell>
        <mxCell id="fkcTVNicVJGHUa3fR3Ig-5" value="" style="endArrow=classic;html=1;rounded=0;exitX=0.5;exitY=1;exitDx=0;exitDy=0;entryX=0.5;entryY=0;entryDx=0;entryDy=0;" parent="1" source="fkcTVNicVJGHUa3fR3Ig-2" target="fkcTVNicVJGHUa3fR3Ig-3" edge="1">
          <mxGeometry width="50" height="50" relative="1" as="geometry">
            <mxPoint x="620" y="215" as="sourcePoint" />
            <mxPoint x="620" y="265" as="targetPoint" />
          </mxGeometry>
        </mxCell>
        <mxCell id="fkcTVNicVJGHUa3fR3Ig-6" value="" style="endArrow=classic;html=1;rounded=0;exitX=0.5;exitY=1;exitDx=0;exitDy=0;entryX=0.5;entryY=0;entryDx=0;entryDy=0;" parent="1" source="WtTW-PMpdfPZUwneUC1K-1" target="fkcTVNicVJGHUa3fR3Ig-1" edge="1">
          <mxGeometry width="50" height="50" relative="1" as="geometry">
            <mxPoint x="600" y="304" as="sourcePoint" />
            <mxPoint x="600" y="354" as="targetPoint" />
          </mxGeometry>
        </mxCell>
        <mxCell id="D2620xXfxSnl_duydwdV-1" value="&lt;font face=&quot;Times New Roman&quot;&gt;&lt;span style=&quot;font-size: 17px;&quot;&gt;KIỂM TRA RÀNG BUỘC&lt;/span&gt;&lt;/font&gt;" style="rhombus;whiteSpace=wrap;html=1;fillColor=#fff2cc;strokeColor=#d6b656;" parent="1" vertex="1">
          <mxGeometry x="140" y="384" width="223.75" height="114" as="geometry" />
        </mxCell>
        <mxCell id="D2620xXfxSnl_duydwdV-2" value="" style="endArrow=classic;html=1;rounded=0;exitX=0;exitY=0.5;exitDx=0;exitDy=0;entryX=0.5;entryY=0;entryDx=0;entryDy=0;" parent="1" source="fkcTVNicVJGHUa3fR3Ig-3" target="D2620xXfxSnl_duydwdV-1" edge="1">
          <mxGeometry width="50" height="50" relative="1" as="geometry">
            <mxPoint x="680" y="394" as="sourcePoint" />
            <mxPoint x="680" y="434" as="targetPoint" />
            <Array as="points">
              <mxPoint x="252" y="359" />
            </Array>
          </mxGeometry>
        </mxCell>
        <mxCell id="Ip6eTfsOKE9TeNnBjrbE-1" value="&lt;font face=&quot;Times New Roman&quot;&gt;&lt;span style=&quot;font-size: 17px;&quot;&gt;THÔNG BÁO XUNG ĐỘT&lt;/span&gt;&lt;/font&gt;" style="rounded=0;whiteSpace=wrap;html=1;fillColor=#f8cecc;strokeColor=#b85450;" parent="1" vertex="1">
          <mxGeometry x="530" y="416" width="310" height="50" as="geometry" />
        </mxCell>
        <mxCell id="Ip6eTfsOKE9TeNnBjrbE-2" value="" style="endArrow=classic;html=1;rounded=0;exitX=1;exitY=0.5;exitDx=0;exitDy=0;entryX=0;entryY=0.5;entryDx=0;entryDy=0;" parent="1" source="D2620xXfxSnl_duydwdV-1" target="Ip6eTfsOKE9TeNnBjrbE-1" edge="1">
          <mxGeometry relative="1" as="geometry">
            <mxPoint x="390" y="440.40999999999997" as="sourcePoint" />
            <mxPoint x="490" y="440" as="targetPoint" />
          </mxGeometry>
        </mxCell>
        <mxCell id="Ip6eTfsOKE9TeNnBjrbE-3" value="&lt;font face=&quot;Times New Roman&quot;&gt;&lt;span style=&quot;font-size: 13px;&quot;&gt;Không hợp lệ&lt;/span&gt;&lt;/font&gt;" style="edgeLabel;resizable=0;html=1;;align=center;verticalAlign=middle;" parent="Ip6eTfsOKE9TeNnBjrbE-2" connectable="0" vertex="1">
          <mxGeometry relative="1" as="geometry" />
        </mxCell>
        <mxCell id="Ip6eTfsOKE9TeNnBjrbE-4" value="&lt;font face=&quot;Times New Roman&quot;&gt;&lt;span style=&quot;font-size: 17px;&quot;&gt;GỬI YÊU CẦU&lt;/span&gt;&lt;/font&gt;" style="rounded=0;whiteSpace=wrap;html=1;fillColor=#d5e8d4;strokeColor=#82b366;" parent="1" vertex="1">
          <mxGeometry x="96.88" y="564" width="310" height="50" as="geometry" />
        </mxCell>
        <mxCell id="Ip6eTfsOKE9TeNnBjrbE-5" value="" style="endArrow=classic;html=1;rounded=0;entryX=0.5;entryY=0;entryDx=0;entryDy=0;exitX=0.5;exitY=1;exitDx=0;exitDy=0;" parent="1" source="D2620xXfxSnl_duydwdV-1" target="Ip6eTfsOKE9TeNnBjrbE-4" edge="1">
          <mxGeometry relative="1" as="geometry">
            <mxPoint x="265" y="658" as="sourcePoint" />
            <mxPoint x="260" y="670" as="targetPoint" />
          </mxGeometry>
        </mxCell>
        <mxCell id="Ip6eTfsOKE9TeNnBjrbE-6" value="&lt;font face=&quot;Times New Roman&quot;&gt;&lt;span style=&quot;font-size: 13px;&quot;&gt;Hợp lệ&lt;/span&gt;&lt;/font&gt;" style="edgeLabel;resizable=0;html=1;;align=center;verticalAlign=middle;" parent="Ip6eTfsOKE9TeNnBjrbE-5" connectable="0" vertex="1">
          <mxGeometry relative="1" as="geometry" />
        </mxCell>
        <mxCell id="Ip6eTfsOKE9TeNnBjrbE-9" value="&lt;font face=&quot;Times New Roman&quot;&gt;&lt;span style=&quot;font-size: 17px;&quot;&gt;CÁN BỘ ĐÀO TẠO&lt;br&gt;PHÊ DUYỆT&lt;/span&gt;&lt;/font&gt;" style="rhombus;whiteSpace=wrap;html=1;fillColor=#fff2cc;strokeColor=#d6b656;" parent="1" vertex="1">
          <mxGeometry x="478.25" y="532" width="223.75" height="114" as="geometry" />
        </mxCell>
        <mxCell id="Ip6eTfsOKE9TeNnBjrbE-10" value="" style="endArrow=classic;html=1;rounded=0;exitX=1;exitY=0.5;exitDx=0;exitDy=0;entryX=0;entryY=0.5;entryDx=0;entryDy=0;" parent="1" source="Ip6eTfsOKE9TeNnBjrbE-4" target="Ip6eTfsOKE9TeNnBjrbE-9" edge="1">
          <mxGeometry width="50" height="50" relative="1" as="geometry">
            <mxPoint x="560" y="664" as="sourcePoint" />
            <mxPoint x="610" y="614" as="targetPoint" />
          </mxGeometry>
        </mxCell>
        <mxCell id="Ip6eTfsOKE9TeNnBjrbE-11" value="" style="endArrow=classic;html=1;rounded=0;exitX=1;exitY=0.5;exitDx=0;exitDy=0;" parent="1" source="Ip6eTfsOKE9TeNnBjrbE-9" edge="1">
          <mxGeometry relative="1" as="geometry">
            <mxPoint x="750" y="574" as="sourcePoint" />
            <mxPoint x="780" y="589" as="targetPoint" />
          </mxGeometry>
        </mxCell>
        <mxCell id="Ip6eTfsOKE9TeNnBjrbE-12" value="&lt;font face=&quot;Times New Roman&quot;&gt;&lt;span style=&quot;font-size: 13px;&quot;&gt;Có&lt;/span&gt;&lt;/font&gt;" style="edgeLabel;resizable=0;html=1;;align=center;verticalAlign=middle;" parent="Ip6eTfsOKE9TeNnBjrbE-11" connectable="0" vertex="1">
          <mxGeometry relative="1" as="geometry" />
        </mxCell>
        <mxCell id="Ip6eTfsOKE9TeNnBjrbE-13" value="" style="endArrow=classic;html=1;rounded=0;exitX=0.5;exitY=1;exitDx=0;exitDy=0;entryX=0.5;entryY=0;entryDx=0;entryDy=0;" parent="1" source="Ip6eTfsOKE9TeNnBjrbE-9" target="gjzX3CH2xDqnmR49DV8Q-1" edge="1">
          <mxGeometry relative="1" as="geometry">
            <mxPoint x="700" y="674" as="sourcePoint" />
            <mxPoint x="590" y="724" as="targetPoint" />
          </mxGeometry>
        </mxCell>
        <mxCell id="Ip6eTfsOKE9TeNnBjrbE-14" value="&lt;font face=&quot;Times New Roman&quot;&gt;&lt;span style=&quot;font-size: 13px;&quot;&gt;Không&lt;/span&gt;&lt;/font&gt;" style="edgeLabel;resizable=0;html=1;;align=center;verticalAlign=middle;" parent="Ip6eTfsOKE9TeNnBjrbE-13" connectable="0" vertex="1">
          <mxGeometry relative="1" as="geometry" />
        </mxCell>
        <mxCell id="gjzX3CH2xDqnmR49DV8Q-1" value="&lt;font face=&quot;Times New Roman&quot;&gt;&lt;span style=&quot;font-size: 17px;&quot;&gt;TỰ ĐỘNG CẬP NHẬT NẾU HỢP LỆ&lt;/span&gt;&lt;/font&gt;" style="rounded=0;whiteSpace=wrap;html=1;fillColor=#dae8fc;strokeColor=#6c8ebf;" parent="1" vertex="1">
          <mxGeometry x="435.12" y="724" width="310" height="50" as="geometry" />
        </mxCell>
        <mxCell id="gjzX3CH2xDqnmR49DV8Q-2" value="&lt;font face=&quot;Times New Roman&quot;&gt;&lt;span style=&quot;font-size: 17px;&quot;&gt;KIỂM TRA RÀNG BUỘC THỦ CÔNG&lt;/span&gt;&lt;/font&gt;" style="rounded=0;whiteSpace=wrap;html=1;fillColor=#dae8fc;strokeColor=#6c8ebf;" parent="1" vertex="1">
          <mxGeometry x="780" y="564" width="310" height="50" as="geometry" />
        </mxCell>
        <mxCell id="gjzX3CH2xDqnmR49DV8Q-3" value="&lt;font face=&quot;Times New Roman&quot;&gt;&lt;span style=&quot;font-size: 17px;&quot;&gt;PHÊ DUYỆT / TỪ CHỐI&lt;/span&gt;&lt;/font&gt;" style="rounded=0;whiteSpace=wrap;html=1;fillColor=#dae8fc;strokeColor=#6c8ebf;" parent="1" vertex="1">
          <mxGeometry x="780" y="654" width="310" height="50" as="geometry" />
        </mxCell>
        <mxCell id="gjzX3CH2xDqnmR49DV8Q-4" value="" style="endArrow=classic;html=1;rounded=0;exitX=0.5;exitY=1;exitDx=0;exitDy=0;entryX=0.5;entryY=0;entryDx=0;entryDy=0;" parent="1" source="gjzX3CH2xDqnmR49DV8Q-2" target="gjzX3CH2xDqnmR49DV8Q-3" edge="1">
          <mxGeometry width="50" height="50" relative="1" as="geometry">
            <mxPoint x="570" y="704" as="sourcePoint" />
            <mxPoint x="620" y="654" as="targetPoint" />
          </mxGeometry>
        </mxCell>
        <mxCell id="LgrSVsRF3PKiyuLsVUXy-1" value="&lt;font face=&quot;Times New Roman&quot;&gt;&lt;span style=&quot;font-size: 14px;&quot;&gt;&lt;b&gt;ĐĂNG KÝ LỊCH GIẢNG DẠY&lt;/b&gt;&lt;/span&gt;&lt;/font&gt;" style="shape=umlFrame;whiteSpace=wrap;html=1;pointerEvents=0;width=320;height=40;" vertex="1" parent="1">
          <mxGeometry x="10" y="9" width="1150" height="810" as="geometry" />
        </mxCell>
      </root>
    </mxGraphModel>
  </diagram>
  <diagram name="FUNC-012" id="7aUBtcZszqi8igVQ1_M9">
    <mxGraphModel dx="1788" dy="919" grid="1" gridSize="10" guides="1" tooltips="1" connect="1" arrows="1" fold="1" page="1" pageScale="1" pageWidth="1169" pageHeight="827" math="0" shadow="0">
      <root>
        <mxCell id="0xZaQF4Cdb5PJt-bXnLa-0" />
        <mxCell id="0xZaQF4Cdb5PJt-bXnLa-1" parent="0xZaQF4Cdb5PJt-bXnLa-0" />
        <mxCell id="0xZaQF4Cdb5PJt-bXnLa-2" value="&lt;font face=&quot;Times New Roman&quot;&gt;&lt;span style=&quot;font-size: 17px;&quot;&gt;HỌC VIÊN / GIẢNG VIÊN&lt;/span&gt;&lt;/font&gt;" style="rounded=0;whiteSpace=wrap;html=1;fillColor=#9AC7BF;fontColor=#333333;strokeColor=#666666;" vertex="1" parent="0xZaQF4Cdb5PJt-bXnLa-1">
          <mxGeometry x="467.5" y="189" width="235" height="50" as="geometry" />
        </mxCell>
        <mxCell id="0xZaQF4Cdb5PJt-bXnLa-3" value="&lt;font face=&quot;Times New Roman&quot;&gt;&lt;span style=&quot;font-size: 17px;&quot;&gt;CHỌN LOẠI YÊU CẦU HỖ TRỢ&lt;/span&gt;&lt;/font&gt;" style="rounded=0;whiteSpace=wrap;html=1;fillColor=#dae8fc;strokeColor=#6c8ebf;" vertex="1" parent="0xZaQF4Cdb5PJt-bXnLa-1">
          <mxGeometry x="430" y="289" width="310" height="50" as="geometry" />
        </mxCell>
        <mxCell id="0xZaQF4Cdb5PJt-bXnLa-4" value="" style="endArrow=classic;html=1;rounded=0;exitX=0.5;exitY=1;exitDx=0;exitDy=0;entryX=0.5;entryY=0;entryDx=0;entryDy=0;" edge="1" parent="0xZaQF4Cdb5PJt-bXnLa-1" source="0xZaQF4Cdb5PJt-bXnLa-2" target="0xZaQF4Cdb5PJt-bXnLa-3">
          <mxGeometry width="50" height="50" relative="1" as="geometry">
            <mxPoint x="575.49" y="579" as="sourcePoint" />
            <mxPoint x="625.49" y="529" as="targetPoint" />
          </mxGeometry>
        </mxCell>
        <mxCell id="0xZaQF4Cdb5PJt-bXnLa-5" value="&lt;font face=&quot;Times New Roman&quot;&gt;&lt;span style=&quot;font-size: 17px;&quot;&gt;CUNG CẤP NỘI DUNG &amp;amp; FILE ĐÍNH KÈM (NẾU CÓ)&lt;/span&gt;&lt;/font&gt;" style="rounded=0;whiteSpace=wrap;html=1;fillColor=#dae8fc;strokeColor=#6c8ebf;" vertex="1" parent="0xZaQF4Cdb5PJt-bXnLa-1">
          <mxGeometry x="350" y="389" width="470" height="50" as="geometry" />
        </mxCell>
        <mxCell id="0xZaQF4Cdb5PJt-bXnLa-6" value="&lt;font face=&quot;Times New Roman&quot;&gt;&lt;span style=&quot;font-size: 17px;&quot;&gt;HỆ THỐNG GỬI ĐẾN QUẢN TRỊ VIÊN&lt;/span&gt;&lt;/font&gt;" style="rounded=0;whiteSpace=wrap;html=1;fillColor=#dae8fc;strokeColor=#6c8ebf;" vertex="1" parent="0xZaQF4Cdb5PJt-bXnLa-1">
          <mxGeometry x="430" y="489" width="310" height="50" as="geometry" />
        </mxCell>
        <mxCell id="0xZaQF4Cdb5PJt-bXnLa-7" value="" style="endArrow=classic;html=1;rounded=0;exitX=0.5;exitY=1;exitDx=0;exitDy=0;entryX=0.5;entryY=0;entryDx=0;entryDy=0;" edge="1" parent="0xZaQF4Cdb5PJt-bXnLa-1" source="0xZaQF4Cdb5PJt-bXnLa-3" target="0xZaQF4Cdb5PJt-bXnLa-5">
          <mxGeometry width="50" height="50" relative="1" as="geometry">
            <mxPoint x="581" y="280" as="sourcePoint" />
            <mxPoint x="581" y="330" as="targetPoint" />
          </mxGeometry>
        </mxCell>
        <mxCell id="0xZaQF4Cdb5PJt-bXnLa-8" value="" style="endArrow=classic;html=1;rounded=0;exitX=0.5;exitY=1;exitDx=0;exitDy=0;entryX=0.5;entryY=0;entryDx=0;entryDy=0;" edge="1" parent="0xZaQF4Cdb5PJt-bXnLa-1" source="0xZaQF4Cdb5PJt-bXnLa-5" target="0xZaQF4Cdb5PJt-bXnLa-6">
          <mxGeometry width="50" height="50" relative="1" as="geometry">
            <mxPoint x="621" y="360" as="sourcePoint" />
            <mxPoint x="621" y="410" as="targetPoint" />
          </mxGeometry>
        </mxCell>
        <mxCell id="3f79-6pgDdteoGtrXkEF-1" value="&lt;font face=&quot;Times New Roman&quot;&gt;&lt;span style=&quot;font-size: 17px;&quot;&gt;THEO DÕI YÊU CẦU&lt;/span&gt;&lt;/font&gt;" style="rounded=0;whiteSpace=wrap;html=1;fillColor=#dae8fc;strokeColor=#6c8ebf;" vertex="1" parent="0xZaQF4Cdb5PJt-bXnLa-1">
          <mxGeometry x="430" y="589" width="310" height="50" as="geometry" />
        </mxCell>
        <mxCell id="3f79-6pgDdteoGtrXkEF-2" value="" style="endArrow=classic;html=1;rounded=0;exitX=0.5;exitY=1;exitDx=0;exitDy=0;entryX=0.5;entryY=0;entryDx=0;entryDy=0;" edge="1" parent="0xZaQF4Cdb5PJt-bXnLa-1" target="3f79-6pgDdteoGtrXkEF-1">
          <mxGeometry width="50" height="50" relative="1" as="geometry">
            <mxPoint x="585" y="539" as="sourcePoint" />
            <mxPoint x="621" y="510" as="targetPoint" />
          </mxGeometry>
        </mxCell>
        <mxCell id="YbYBJyx9NVaqYu2czoEx-0" value="&lt;font style=&quot;font-size: 14px;&quot; face=&quot;Times New Roman&quot;&gt;&lt;b&gt;GỬI YÊU CẦU HỖ TRỢ&lt;/b&gt;&lt;/font&gt;" style="shape=umlFrame;whiteSpace=wrap;html=1;pointerEvents=0;width=320;height=40;" vertex="1" parent="0xZaQF4Cdb5PJt-bXnLa-1">
          <mxGeometry x="10" y="9" width="1150" height="810" as="geometry" />
        </mxCell>
      </root>
    </mxGraphModel>
  </diagram>
</mxfile>
